<?xml version="1.0" encoding="UTF-8"?>
<svg id="_圖層_2" data-name="圖層 2" xmlns="http://www.w3.org/2000/svg" viewBox="0 0 34.8 34.8">
  <g id="_文字" data-name="文字">
    <g>
      <circle cx="17.4" cy="17.4" r="16.9" fill="none" stroke="#c7b299" stroke-miterlimit="10"/>
      <path d="M26.95,17.28v.11c-.02,.08-.04,.15-.05,.23-.02,.91-.27,1.76-.67,2.57-.5,1.01-1.23,1.84-2.03,2.62-1.18,1.15-2.49,2.15-3.86,3.06-.86,.57-1.74,1.1-2.63,1.62-.22,.13-.48,.21-.72,.28-.24,.07-.4-.07-.4-.32,0-.12,.01-.23,.03-.35,.05-.35,.12-.7,.15-1.05,.04-.59-.08-.82-.64-.99-.28-.08-.58-.13-.87-.18-1.91-.37-3.63-1.13-5.06-2.48-1.39-1.31-2.23-2.9-2.3-4.84,0-.06-.03-.12-.04-.18,0-.05,0-.1,0-.15,.02-.08,.05-.15,.05-.23,.02-.68,.17-1.33,.41-1.95,.74-1.88,2.09-3.22,3.84-4.17,1.86-1,3.85-1.4,5.96-1.27,.97,.06,1.91,.23,2.82,.53,1.92,.64,3.54,1.7,4.73,3.36,.65,.91,1.06,1.91,1.19,3.03,.03,.24,.06,.49,.09,.73Zm-7.77,.58c-.05-.07-.07-.09-.09-.12-.59-.8-1.18-1.6-1.76-2.4-.19-.26-.39-.34-.64-.26-.23,.07-.37,.29-.37,.6,0,.11,0,.21,0,.32,0,1.1,0,2.21,0,3.31,0,.25,.08,.45,.31,.57,.37,.18,.76-.09,.76-.53,0-.55,0-1.1,0-1.66,0-.16,0-.33,0-.54,.31,.43,.6,.82,.89,1.21,.33,.45,.66,.91,1,1.36,.14,.19,.36,.25,.58,.18,.21-.07,.36-.25,.36-.47,0-1.3,0-2.59,0-3.89,0-.28-.23-.49-.53-.48-.3,0-.51,.2-.51,.5,0,.16,0,.32,0,.48,0,.59,0,1.17,0,1.81Zm1.65-.37c0,.57,0,1.14,0,1.71,0,.08,0,.16,.02,.24,.05,.32,.24,.5,.57,.5,.6,0,1.21,0,1.81,0,.34,0,.58-.25,.58-.55,0-.3-.26-.52-.59-.52-.38,0-.76,0-1.14,0-.13,0-.18-.04-.17-.17,0-.14,0-.27,0-.41,0-.25,0-.25,.24-.25,.4,0,.8,0,1.19-.03,.3-.02,.48-.28,.46-.55-.02-.28-.25-.49-.55-.49-.39,0-.78,0-1.17,0-.13,0-.18-.04-.17-.17,0-.16,0-.32,0-.48,0-.15,.04-.21,.2-.21,.4,0,.8,0,1.19,0,.23,0,.38-.12,.46-.31,.14-.32-.05-.71-.41-.72-.69-.03-1.39-.02-2.08,0-.21,0-.34,.17-.4,.37-.03,.11-.03,.22-.03,.33,0,.57,0,1.14,0,1.71Zm-9.59,0c0,.61,0,1.23,0,1.84,0,.36,.22,.59,.57,.6,.61,0,1.22,0,1.83,0,.33,0,.57-.24,.56-.55,0-.31-.24-.52-.58-.52-.36,0-.72,0-1.08,0-.18,0-.23-.05-.23-.23,0-.97,0-1.95,0-2.92,0-.16-.06-.33-.14-.47-.11-.18-.36-.23-.57-.16-.22,.07-.36,.27-.36,.53,0,.63,0,1.25,0,1.88Zm4.43,0c0-.62,0-1.24,0-1.86,0-.36-.22-.57-.54-.57-.32,0-.53,.23-.53,.59,0,.9,0,1.8,0,2.7,0,.34,0,.68,0,1.02,.01,.43,.4,.68,.76,.5,.23-.11,.31-.31,.31-.55,0-.61,0-1.22,0-1.82Z" fill="#c7b299"/>
    </g>
  </g>
</svg>