<?xml version="1.0" encoding="UTF-8"?>
<svg id="_圖層_2" data-name="圖層 2" xmlns="http://www.w3.org/2000/svg" viewBox="0 0 45 45.01">
  <g id="_文字" data-name="文字">
    <g>
      <path d="M45,10.58c-.22,1.21-.56,2.39-1.18,3.47-.46,.81-1.03,1.53-1.69,2.18-3.78,3.78-7.55,7.55-11.33,11.33-2.11,2.11-4.65,3.11-7.63,2.88-2.27-.17-4.23-1.11-5.85-2.72-.73-.73-.75-1.88-.08-2.63,.7-.79,1.8-.89,2.64-.2,.69,.57,1.38,1.14,2.25,1.42,2.1,.67,4.04,.35,5.62-1.2,4.01-3.93,7.98-7.92,11.93-11.92,1.62-1.64,1.97-4.13,.97-6.19-1-2.09-3.18-3.36-5.47-3.16-1.29,.11-2.44,.59-3.37,1.52-2.07,2.05-4.12,4.11-6.18,6.17-.45,.45-.94,.83-1.63,.83-.76-.01-1.33-.34-1.69-.98-.37-.66-.33-1.32,.07-1.96,.12-.18,.27-.35,.42-.5,2.02-2.02,4.03-4.04,6.05-6.05C30.95,.78,33.5-.23,36.45,.05c3.44,.32,5.98,2.1,7.6,5.17,.51,.97,.77,2.02,.95,3.09v2.28Z" fill="#c7b299"/>
      <path d="M8.29,45.01c-1.37-.22-2.68-.62-3.85-1.38-2.45-1.58-3.94-3.8-4.34-6.7-.42-3.09,.5-5.77,2.68-7.98,3.48-3.53,7-7.03,10.52-10.53,2.08-2.07,4.62-3,7.54-2.76,2.25,.18,4.2,1.11,5.8,2.71,.74,.74,.76,1.87,.1,2.62-.7,.79-1.8,.9-2.64,.21-.7-.58-1.4-1.16-2.29-1.44-2.08-.65-4.02-.32-5.58,1.21-3.67,3.59-7.31,7.22-10.89,10.9-1.54,1.58-1.9,3.54-1.16,5.62,.73,2.05,2.23,3.29,4.4,3.63,1.86,.29,3.47-.27,4.8-1.6,1.68-1.67,3.36-3.35,5.03-5.03,.56-.56,1.2-.9,2.01-.73,1.27,.27,1.9,1.69,1.24,2.82-.09,.15-.19,.3-.31,.42-1.92,1.91-3.78,3.88-5.77,5.71-1.35,1.24-2.98,1.94-4.79,2.22-.07,.01-.14,.04-.21,.06h-2.28Z" fill="#c7b299"/>
    </g>
  </g>
</svg>