<?xml version="1.0" encoding="UTF-8"?>
<svg id="_圖層_2" data-name="圖層 2" xmlns="http://www.w3.org/2000/svg" viewBox="0 0 44.51 44.53">
  <g id="_文字" data-name="文字">
    <g>
      <path d="M20.95,44.53c-.84-.11-1.69-.2-2.53-.35-5.12-.91-9.4-3.33-12.85-7.21C2.42,33.42,.58,29.25,.12,24.53c-.57-5.81,.9-11.09,4.45-15.74C7.91,4.42,12.29,1.62,17.68,.5c5.35-1.12,10.45-.33,15.26,2.25,.29,.16,.58,.33,.87,.49,.76,.44,1,1.2,.61,1.87-.38,.66-1.15,.84-1.89,.41-1.39-.81-2.83-1.52-4.38-1.98-6.88-2-13.14-.77-18.64,3.83-4.01,3.35-6.35,7.73-6.77,12.94-.65,8.1,2.57,14.41,9.42,18.78,3.26,2.08,6.9,2.92,10.76,2.81,8.75-.24,16.52-6.63,18.45-15.17,.78-3.47,.65-6.9-.38-10.29-.06-.19-.12-.39-.17-.58-.18-.73,.18-1.39,.88-1.61,.68-.21,1.39,.14,1.61,.87,.28,.93,.55,1.86,.73,2.81,.19,.95,.26,1.92,.39,2.88,.02,.14,.04,.28,.07,.42v2.35c-.04,.31-.07,.63-.11,.94-.53,4.79-2.36,9.02-5.59,12.6-3.43,3.8-7.67,6.18-12.73,7.07-.84,.15-1.69,.23-2.53,.35h-2.61Z" fill="#c7b299"/>
      <path d="M22.15,26.6c.69-.81,1.37-1.62,2.05-2.42,5-5.94,10.01-11.88,15-17.82,.39-.46,.84-.72,1.44-.59,.49,.11,.82,.43,.96,.91,.16,.53-.04,.96-.38,1.36-1.41,1.67-2.82,3.34-4.23,5.02-4.43,5.26-8.88,10.51-13.29,15.8-1.03,1.24-1.76,1.21-2.85,.16-3.22-3.09-6.5-6.12-9.74-9.19-.27-.25-.5-.61-.59-.97-.15-.54,.1-1,.58-1.29,.48-.29,.97-.27,1.43,.04,.17,.11,.31,.26,.46,.4,2.98,2.8,5.96,5.6,8.93,8.39,.06,.06,.13,.11,.23,.2Z" fill="#c7b299"/>
    </g>
  </g>
</svg>