<?xml version="1.0" encoding="UTF-8"?>
<svg id="_圖層_2" data-name="圖層 2" xmlns="http://www.w3.org/2000/svg" viewBox="0 0 47.45 35.6">
  <g id="_文字" data-name="文字">
    <path d="M0,3.52C.2,2.54,.59,1.65,1.38,.98,2.21,.26,3.17,0,4.24,0c9.79,0,19.58,0,29.37,0,3.23,0,6.45,0,9.68,0,1.69,0,3,.71,3.73,2.25,.26,.55,.4,1.22,.4,1.83,.02,9.14,.02,18.29,.01,27.43,0,2.42-1.73,4.08-4.2,4.08-11.43,0-22.85,0-34.28,0-1.57,0-3.15-.03-4.72,0-2.21,.05-3.9-1.43-4.18-3.36,0-.06-.04-.11-.06-.17C0,22.56,0,13.04,0,3.52Zm3.65-1.49s-.06,.1-.09,.15c.09,.05,.2,.09,.28,.16,6.12,5.58,12.23,11.16,18.35,16.73,1.06,.96,2.04,.94,3.12-.04,6.06-5.52,12.12-11.05,18.18-16.58,.12-.11,.28-.19,.41-.28-.03-.05-.07-.09-.1-.14H3.65ZM28.28,19.01c-.62,.56-1.13,1.03-1.65,1.49-.68,.61-1.43,1.07-2.35,1.2-1.36,.19-2.47-.31-3.46-1.2-.52-.47-1.05-.94-1.64-1.49-5.24,4.83-10.44,9.63-15.65,14.42,.03,.04,.05,.09,.08,.13H43.85s.05-.09,.07-.14c-5.21-4.8-10.41-9.6-15.64-14.42ZM2.11,3.43c-.22,.74-.19,28.2,0,28.61,5.19-4.78,10.38-9.57,15.58-14.38C12.53,12.94,7.34,8.21,2.11,3.43Zm43.31,28.69V3.36c-5.31,4.85-10.51,9.6-15.67,14.31,5.22,4.82,10.41,9.6,15.67,14.46Z" fill="#c7b299"/>
  </g>
</svg>