<?xml version="1.0" encoding="UTF-8"?>
<svg id="_圖層_2" data-name="圖層 2" xmlns="http://www.w3.org/2000/svg" viewBox="0 0 55.36 47.33">
  <g id="_圖片" data-name="圖片">
    <g opacity=".5">
      <path d="M55.36,16.98c-.24,1.14-.41,2.3-.73,3.41-.75,2.57-2.16,4.77-4.09,6.62-2.65,2.54-5.34,5.05-7.99,7.59-.8,.77-1.73,1.19-2.83,1.24-.18,2.28-1.64,3.7-3.84,3.85-.24,2.31-1.51,3.6-3.83,3.83-.07,.38-.11,.76-.22,1.11-.8,2.65-4.14,3.6-6.15,1.69-2.18-2.07-4.28-4.23-6.38-6.37-.34-.35-.56-.82-.86-1.27-1.24,.7-2.56,.81-3.87,.09-1.29-.71-1.91-1.85-1.98-3.3-2.37-.26-3.66-1.65-3.89-3.87-.28-.04-.57-.06-.84-.13-1.79-.43-2.97-1.97-2.91-3.83,.01-.32-.04-.56-.29-.81C2.03,24.22,.49,21.05,.09,17.34c-.01-.12-.06-.24-.09-.36,0-.86,0-1.73,0-2.59,.18-.93,.32-1.87,.56-2.79C2.55,3.95,10.41-1.11,18.19,.21c3.52,.59,6.49,2.17,8.96,4.71,.17,.17,.35,.34,.56,.55,.28-.3,.5-.56,.75-.8C31.13,2.03,34.33,.51,38.07,.11c7.6-.81,14.8,4.14,16.74,11.54,.24,.93,.37,1.9,.55,2.85v2.48ZM22.22,12.08c-.21,.18-.3,.26-.39,.35-4.65,4.64-9.3,9.28-13.95,13.93-.25,.25-.46,.56-.62,.87-.29,.57-.21,1.11,.21,1.6,.68,.8,1.74,.8,2.56-.01,3.38-3.37,6.75-6.74,10.13-10.11,.14-.14,.27-.29,.43-.41,.46-.35,1.03-.31,1.43,.08,.38,.38,.42,.98,.08,1.42-.16,.2-.34,.37-.52,.55-3.29,3.28-6.58,6.56-9.86,9.84-.14,.14-.29,.28-.41,.43-.72,.92-.31,2.22,.82,2.56,.73,.22,1.29-.07,1.79-.57,3.37-3.37,6.75-6.74,10.13-10.11,.14-.14,.28-.29,.43-.4,.42-.3,1.03-.24,1.39,.12,.37,.38,.42,.94,.1,1.38-.12,.16-.26,.3-.4,.44-3.34,3.33-6.68,6.67-10.02,10-.89,.89-.99,1.9-.27,2.6,.73,.71,1.69,.6,2.6-.31,.51-.51,1.02-1.02,1.53-1.52,.67-.65,1.45-1.05,2.39-1.12,.12,0,.23-.05,.34-.07,.27-2.34,1.3-3.36,3.83-3.84,.24-2.31,1.53-3.59,3.85-3.81,.14-1.74,.93-3.01,2.6-3.58,1.7-.58,3.08,.01,4.28,1.26,1.4,1.45,2.86,2.84,4.27,4.28,.87,.89,1.91,1.65,2.38,2.91,.12-.1,.19-.15,.25-.21,1.84-1.75,3.72-3.45,5.52-5.25,3.2-3.2,4.56-7.09,3.93-11.56-1.31-9.26-11.32-14.39-19.65-10.12-1.6,.82-2.96,1.94-4.22,3.36,.17,.13,.33,.23,.45,.35,1.15,1.14,2.3,2.28,3.44,3.44,.94,.95,1.39,2.1,1.25,3.43-.19,1.81-1.15,3.09-2.87,3.7-1.72,.61-3.27,.2-4.57-1.07-1.4-1.37-2.78-2.77-4.17-4.16-.19-.19-.33-.43-.5-.65ZM6.08,25.22c.14-.18,.24-.36,.38-.5,4.89-4.88,9.78-9.77,14.67-14.65,.73-.73,1.24-.73,1.97,0,1.77,1.77,3.53,3.54,5.31,5.3,.93,.92,2.27,.92,3.14,.05,.86-.87,.85-2.19-.05-3.09-2.14-2.16-4.26-4.34-6.47-6.43-3.18-3.01-7.01-4.19-11.33-3.56C5.29,3.56,.1,12.23,2.94,20.25c.66,1.85,1.67,3.48,3.14,4.98Zm35.38,6.74c-.19-.36-.3-.78-.57-1.06-2.02-2.05-4.06-4.08-6.1-6.11-.42-.42-.95-.58-1.54-.42-1.27,.34-1.66,1.8-.71,2.77,1.16,1.18,2.34,2.34,3.51,3.51,.84,.84,1.67,1.69,2.52,2.51,.53,.51,1.16,.63,1.84,.34,.6-.25,.97-.86,1.05-1.55Zm-7.76,7.54c-.11-.21-.22-.66-.5-.94-2.01-2.06-4.06-4.08-6.1-6.11-.41-.4-.92-.56-1.49-.42-1.29,.3-1.7,1.81-.74,2.79,1.35,1.37,2.72,2.72,4.08,4.08,.65,.65,1.29,1.3,1.95,1.94,.51,.49,1.13,.62,1.79,.35,.65-.27,.95-.79,1.01-1.69Zm2.11-1.91c.72-.1,1.29-.46,1.56-1.05,.29-.64,.17-1.33-.38-1.88-1.99-2-3.99-4-6-5.98-.7-.69-1.73-.69-2.37-.04-.62,.64-.62,1.65,.05,2.33,2,2.02,4.01,4.03,6.04,6.01,.29,.28,.72,.41,1.09,.61Zm-13.48-1.78c-.93,.05-1.45,.36-1.71,1.01-.27,.69-.13,1.31,.39,1.83,2,2,3.99,4,6,5.98,.7,.7,1.72,.7,2.37,.04,.63-.64,.63-1.64-.04-2.33-2-2.02-4.01-4.03-6.04-6.01-.3-.29-.76-.42-.96-.53Z" fill="#c7b299"/>
    </g>
  </g>
</svg>