<?xml version="1.0" encoding="UTF-8"?>
<svg id="_圖層_2" data-name="圖層 2" xmlns="http://www.w3.org/2000/svg" viewBox="0 0 62 54.16">
  <g id="_圖片" data-name="圖片">
    <g opacity=".5">
      <path d="M62,2.75c-.1,.35-.18,.69-.29,1.04-1.11,3.64-5,5.61-8.59,4.33-.4-.14-.65-.1-.95,.18-2.1,1.92-3.71,4.18-4.82,6.91,.2-.07,.34-.11,.47-.17,1.45-.63,2.95-.77,4.49-.43,.62,.14,.96,.49,1.11,1.12,.98,4.06-1.87,8.13-6.02,8.59-.38,.04-.76,.07-1.24,.11,.13,.68,.25,1.34,.37,2,.03,.14,.07,.27,.1,.41,.14,.78-.21,1.37-.9,1.54-.64,.15-1.3-.23-1.42-.97-.28-1.68-.49-3.38-.71-5.07-.03-.21,0-.43,0-.65-1.3,.02-2.07,.77-2.09,1.99-.04,2.2-.01,4.4-.1,6.59-.08,1.78-.53,3.5-1.2,5.16-.28,.69-.93,.97-1.57,.73-.6-.23-.96-.89-.69-1.54,1.1-2.7,1.2-5.53,1.14-8.39-.01-.63,.03-1.25,0-1.88-.12-1.85,.46-3.37,1.98-4.4-.99-1.33-1.91-2.67-2.93-3.94-1.01-1.26-2.4-1.69-3.96-1.36-1.69,.35-2.89,1.41-3.35,3.06-.42,1.49-.62,3.04-.84,4.57-.05,.36,.22,.76,.31,1.15,.11,.43,.23,.86,.26,1.3,.04,.61-.37,1.08-.97,1.2-.57,.11-1.14-.2-1.34-.78-.13-.38-.19-.78-.32-1.16-.71-2.18-2.15-3.81-3.97-5.12-2.4-1.73-5.08-2.72-8.05-2.74-4.57-.03-8.9-1.03-13-3.06-.09-.04-.18-.07-.41-.15,.19,.72,.31,1.35,.52,1.94,1.28,3.56,4.66,5.93,8.45,5.94,.89,0,1.78,0,2.66,0,.82,0,1.38,.51,1.37,1.21,0,.71-.56,1.22-1.38,1.2-1.61-.05-3.23-.01-4.82-.24-2.41-.35-4.42-1.56-6.1-3.32-.18-.19-.35-.37-.62-.66,.37,2.37,1.33,4.31,2.92,5.91,2,2.02,4.44,3.11,7.3,3.16,1.71,.03,3.43,0,5.14,.02,.99,.01,1.65,.84,1.24,1.63-.17,.33-.6,.73-.92,.73-2.81,0-5.66,.36-8.43-.36-1.04-.27-2.04-.72-3.08-1.1,.98,1.2,2.13,2.2,3.4,3.07,3.09,2.12,6.52,3.1,10.25,3.1,1.07,0,2.14,0,3.21,0,.85,0,1.37,.47,1.37,1.2,0,.69-.53,1.28-1.31,1.2-2.23-.25-4.19,.48-6.19,1.36-3.15,1.39-6.52,1.92-9.96,1.94-.77,0-1.53,0-2.42,0,1.73,3.43,3.43,6.8,5.15,10.2,.18-.12,.32-.22,.46-.32,1.42-1.1,2.84-2.2,4.26-3.29,2.36-1.82,5.04-2.77,8.02-2.8,3.02-.03,5.81-.76,8.4-2.31,.77-.46,1.46-.32,1.84,.32,.37,.63,.13,1.31-.62,1.77-2.79,1.67-5.81,2.59-9.07,2.61-2.79,.02-5.26,.83-7.44,2.58-1.73,1.39-3.5,2.72-5.26,4.08-.97,.75-1.67,.59-2.23-.51-2.13-4.21-4.23-8.43-6.39-12.61-.52-1.01-.19-2.18,1.34-2.16,2.4,.03,4.8-.02,7.19-.23,1.59-.14,3.14-.62,4.72-.95,0-.06-.02-.11-.03-.17-.88-.3-1.78-.53-2.63-.9C5.34,32.98,1.02,27.39,.17,19.32-.12,16.49,.05,13.6,.05,10.74c0-1.01,1.01-1.49,1.93-.94,1.89,1.13,3.88,2.04,5.99,2.69,2.28,.71,4.62,1.17,7.01,1.17,5.07,0,9.37,1.74,12.85,5.46,.02,.03,.07,.04,.16,.08,.08-.44,.16-.87,.24-1.29,.81-4.41,5.47-6.98,9.44-5.21,1.22,.54,2.11,1.44,2.88,2.51,.97,1.33,2.02,2.6,3.07,3.94,.66-2.15,1.26-4.13,1.87-6.15-.22-.05-.55-.11-.87-.18-3.68-.86-6.05-4.65-5.23-8.33,.16-.71,.54-1.11,1.27-1.26,3.35-.71,6.74,1.07,8.02,4.24,.07,.18,.15,.37,.24,.6,.79-.73,1.55-1.42,2.29-2.14,.11-.11,.12-.33,.16-.5,.91-4.37,5.55-6.68,9.5-4.7,.43,.21,.75,.63,1.12,.95v1.09Zm-20.28,2.82c-.36,2.87,2.33,5.38,4.98,4.94,.52-2.69-2.37-5.57-4.98-4.94Zm4.45,16.31c2.48,.52,5.45-2.27,5-4.71-.02-.13-.31-.33-.44-.31-.67,.11-1.37,.18-1.98,.44-1.81,.78-2.96,2.89-2.58,4.58ZM59.45,2.76c-2.52-1.12-5.37,.8-5.6,3.01,2.27,1.03,5.07-.46,5.6-3.01Z" fill="#c7b299"/>
      <path d="M35.32,18.21c.66,0,1.2,.52,1.22,1.17,.02,.67-.55,1.24-1.23,1.23-.66,0-1.18-.54-1.18-1.21,0-.67,.51-1.19,1.18-1.19Z" fill="#c7b299"/>
      <path d="M36.26,40.89c-.66-.01-1.17-.54-1.17-1.21,0-.65,.55-1.2,1.19-1.2,.67,0,1.22,.57,1.2,1.25-.02,.67-.55,1.17-1.22,1.15Z" fill="#c7b299"/>
    </g>
  </g>
</svg>