<?xml version="1.0" encoding="UTF-8"?>
<svg id="_圖層_2" data-name="圖層 2" xmlns="http://www.w3.org/2000/svg" viewBox="0 0 37.69 47.33">
  <g id="_圖片" data-name="圖片">
    <g opacity=".5">
      <path d="M37.68,15.77c0,2.42,.02,4.84,0,7.26-.06,7.06-2.91,12.73-8.57,16.95-3.25,2.42-6.55,4.77-9.82,7.17-.34,.25-.55,.24-.88,0-3.39-2.48-6.83-4.9-10.17-7.44C3.37,36.02,.67,31.08,.09,24.99c-.05-.57-.08-1.14-.08-1.71C0,17.93,.01,12.58,0,7.24c0-.37,.11-.54,.46-.66C6.44,4.41,12.42,2.23,18.41,.07c.26-.09,.61-.1,.87,0,5.97,2.15,11.94,4.33,17.91,6.49,.4,.14,.5,.33,.5,.73-.02,2.83,0,5.66,0,8.48Zm-18.85,27.8c.12-.08,.2-.14,.28-.19,2.75-2,5.52-3.96,8.24-6,4.73-3.55,7.13-8.32,7.18-14.23,.04-4.56,0-9.12,.02-13.68,0-.42-.14-.58-.52-.72-4.94-1.78-9.88-3.59-14.82-5.37-.22-.08-.52-.08-.74,0-3.43,1.23-6.84,2.48-10.26,3.72-1.68,.61-3.37,1.23-5.07,1.85,0,.17,0,.32,0,.46,0,4.63-.04,9.25,0,13.88,.06,5.54,2.22,10.15,6.56,13.59,2.94,2.34,6.05,4.46,9.11,6.69Z" fill="#c7b299"/>
      <path d="M16.82,24.48c2.95-2.95,5.83-5.83,8.67-8.67,.76,.76,1.48,1.48,2.17,2.17-3.57,3.57-7.19,7.19-10.78,10.78-2.27-2.27-4.58-4.58-6.86-6.86,.68-.68,1.4-1.4,2.12-2.12,1.52,1.52,3.09,3.09,4.68,4.69Z" fill="#c7b299"/>
    </g>
  </g>
</svg>