<?xml version="1.0" encoding="UTF-8"?>
<svg id="_圖層_2" data-name="圖層 2" xmlns="http://www.w3.org/2000/svg" viewBox="0 0 1620.73 357.46">
  <g id="_圖層_1-2" data-name="圖層 1">
    <g>
      <g>
        <path d="M89.37,233.91c-.63-.52-1.27-1.03-1.9-1.55-10.39-8.59-17.4-19.37-21.01-32.36-.75-2.71-1.29-5.47-1.7-8.26-.48-3.25-.55-6.51-.54-9.78,0-1.27,.08-2.54,.13-3.81,.04-.91,.11-1.81,.28-2.71,.27-1.43,.26-2.9,.7-4.3,1.2-6.58,3.46-12.78,6.71-18.61,8.11-14.5,20.09-24.38,35.79-29.75,2.83-.97,5.75-1.68,8.7-2.2,2.14-.37,4.3-.66,6.48-.79,4.73-.28,4.52-.3,9.25,0,6.02,.37,11.85,1.65,17.49,3.77,14.49,5.46,25.59,14.94,33.31,28.35,5.53,9.59,10.97,19.24,16.46,28.85,21.56,37.75,43.13,75.49,64.7,113.23,11.57,20.25,23.14,40.5,34.7,60.76,.4,.71,.89,1.38,1.13,2.16,.04,.13-.11,.31-.18,.46-.45,.03-.9,.08-1.36,.08-3.45,0-6.9-.02-10.35-.04-12.26-.07-24.52-.18-36.77-.22-20.97-.08-41.95-.13-62.92-.2-18.07-.06-36.14-.1-54.21-.23-23.43-.17-46.85-.22-70.28-.28-1.18,0-2.36,0-3.54-.06-1-.04-1.99-.16-2.98-.25-.36-.03-.72-.1-1.08-.14-6.28-.64-12.28-2.32-18.07-4.81-14.82-6.37-29.02-19.34-35.34-39.23-.85-2.68-1.5-5.42-1.98-8.19-.4-2.33-.68-4.67-.85-7.02-.2-2.72-.2-5.45,.02-8.17,.18-2.17,.34-4.35,.82-6.48,1.96-11.93,7.3-21.8,12.86-28.77,7.73-9.69,17.49-16.52,29.19-20.59,3.44-1.2,6.96-2.05,10.55-2.63,2.96-.47,5.94-.79,8.95-.75,1.82,.03,3.63,.05,5.45,.1,1,.02,1.99,.11,2.98,.29,1.43,.26,2.9,.23,4.3,.67,3.95,.68,7.76,1.82,11.49,3.27,.67,.26,1.31,.64,2.04,.75,.69,.1,1.34,.28,1.87,.76,.66,.4,1.44,.53,2.06,1,.16,.05,.26,.18,.36,.3-.02-.17-.13-.27-.33-.31-.56-.43-1.24-.61-1.86-.91-.63-.34-1.13-.82-1.53-1.41Z" fill="#009140"/>
        <path d="M300.8,54.48c.71-4.31,1.72-8.53,3.22-12.64,2.58-7.07,6.29-13.48,11.15-19.21,6.76-7.97,14.96-13.97,24.65-17.91,3.37-1.37,6.81-2.47,10.38-3.2,2.22-.46,4.44-.91,6.71-1.07,.45-.03,.9-.09,1.35-.16,1.08-.17,2.17-.23,3.26-.24,1.54-.01,3.09-.03,4.63,.01,1,.02,1.99,.14,2.99,.22,.36,.03,.72,.1,1.08,.13,5.28,.42,10.38,1.68,15.34,3.48,4.79,1.74,9.32,4.03,13.54,6.91,12.11,8.27,20.53,19.34,25.11,33.29,1.07,3.26,1.51,5.28,2.09,8.45,.75,4.13,1.07,8.28,.98,12.47-.04,1.64-.09,3.27-.33,4.89-.23,1.53-.22,3.08-.64,4.58-1.24,7.52-3.86,14.53-7.67,21.12-1.64,2.83-3.28,5.65-4.91,8.48-16,27.76-31.99,55.52-47.98,83.29-21.07,36.57-42.13,73.14-63.2,109.71-.59,1.02-1.09,2.09-1.83,3.02-.11,.14-.3,.14-.45-.03-.18-.19-.36-.4-.5-.63-1.1-1.88-2.19-3.77-3.28-5.65-35.52-61.35-71.03-122.7-106.55-184.05-2.73-4.71-5.46-9.42-8.2-14.13-3.31-5.69-5.68-11.76-7.13-18.17-1.15-5.07-1.6-10.22-1.45-15.42,.02-.91,.1-1.81,.12-2.72,.04-2.28,.39-4.53,.78-6.76,.68-3.85,1.7-7.61,3.09-11.27,3.57-9.42,9.05-17.55,16.45-24.39,6.49-5.99,13.91-10.44,22.25-13.34,3.26-1.13,6.58-2.05,10-2.54,2.31-.55,4.68-.63,7.02-.87,1.99-.2,3.99-.13,5.99-.08,1.09,.02,2.18,.07,3.26,.24,.36,.06,.72,.11,1.08,.13,4.09,.3,8.07,1.19,11.99,2.37,3.83,1.15,7.51,2.68,11.05,4.55,14.52,7.67,24.81,20.23,29.94,33.98,1.27,3.41,2.22,6.91,2.94,10.47,.32,1.6,.5,3.23,.74,4.85,.42,.66,.12,1.38,.2,2.07,.09,.61-.19,1.25,.16,1.83-.32-.6-.06-1.25-.15-1.86,0-1.44,.68-2.76,.75-4.19Z" fill="#e60012"/>
        <path d="M512.32,234.4c.26-.08,.53-.13,.78-.24,3.44-1.45,6.99-2.54,10.62-3.34,1.59-.35,3.19-.71,4.82-.84,.18-.01,.36-.03,.54-.06,4.51-.71,9.05-.57,13.59-.36,2.06,.31,4.14,.47,6.2,.89,3.24,.65,5.47,1.2,8.42,2.17,16.33,5.33,30.4,17.47,37.93,34.17,1.76,3.9,3.12,7.94,4.08,12.1,.62,2.69,1.31,6.72,1.36,9.42,0,.09,0,.18,.02,.27,.33,3.63,.14,7.26-.15,10.88-.13,1.54-.35,3.07-.63,4.58-.99,5.28-2.54,10.39-4.77,15.29-8.06,17.68-22.73,28.97-37.82,33.92-3.15,1.03-5.65,1.64-8.96,2.25-3.67,.68-7.37,.98-11.1,.99-22.06,.06-44.13,.1-66.19,.25-31.6,.21-63.2,.24-94.8,.35-13.53,.05-27.06,.11-40.59,.18-10.35,.05-20.7,.12-31.05,.18-1.09,0-2.18-.03-3.27-.03-.31,0-.56-.49-.38-.83,.17-.32,.34-.64,.52-.96,1.94-3.39,3.88-6.77,5.81-10.16,21.52-37.67,43.03-75.34,64.55-113.01,14.77-25.85,29.54-51.69,44.31-77.54,.54-.95,1.07-1.9,1.6-2.85,7.53-13.43,19.91-23.97,35.01-29.12,3.01-1.03,6.08-1.83,9.21-2.39,2.14-.38,4.29-.74,6.48-.78,.63-.01,1.27-.07,1.9-.12,1.81-.15,3.63-.15,5.44,0,.54,.04,1.09,.08,1.63,.11,8.17,.47,15.91,2.58,23.28,6.09,17.85,8.52,29.06,24.04,33.5,39.52,.85,2.97,1.55,5.98,1.95,9.04,.45,3.42,.75,6.86,.6,10.32-.05,1.18-.07,2.36-.24,3.53-.05,.36-.09,.72-.12,1.08-.65,7.4-2.66,14.44-5.84,21.14-4.03,8.5-9.69,15.74-16.95,21.73-.63,.52-1.25,1.05-1.88,1.57-.17,.43-.48,.74-.89,.96-.36,.22-.75,.37-1,.69-.16,.12-.15,.16,.02,.04,.3-.21-.17-.19,.2-.2,.33-.25,.7-.4,1.05-.59,.37-.23,.86-.02,1.21-.32Z" fill="#009140"/>
        <path d="M300.8,54.48c.18,.69,.04,1.38-.06,2.06-.12,.77-.29,1.53-.44,2.3-.18,.28-.32,.25-.43-.06-.05-.72-.24-1.43-.04-2.15,.31-.24,.39-.59,.44-.95,.06-.45,.15-.89,.53-1.21Z" fill="#f7acaf"/>
        <path d="M89.37,233.91c.26,.02,.47,.15,.68,.3,.34,.24,.69,.48,1.03,.72,.11,.49-.02,.75-.58,.59-.46-.22-.92-.43-1.37-.67-.14-.07-.23-.24-.34-.36,.19-.19,.39-.38,.58-.57Z" fill="#a8d9bd"/>
        <path d="M90.5,235.51c.29-.1,.54-.24,.58-.59,.57,.18,1.06,.52,1.54,.86,.28,.2,.49,.46,.6,.79l.02-.02c-.87,.04-1.6-.42-2.37-.7-.14-.05-.25-.22-.37-.33Z" fill="#41ac71"/>
        <path d="M93.22,236.57c.08,.04,.22,.09,.22,.11-.04,.17-.12,.13-.19-.14,0,0-.02,.02-.02,.02Z" fill="#41ac71"/>
        <path d="M299.87,58.79c.14,0,.29,.03,.43,.06,.1,.51,.11,1.02-.1,1.51-.03,.07-.11,.12-.17,.18-.05-.07-.12-.14-.14-.22-.15-.51-.14-1.02-.02-1.53Z" fill="#ee5860"/>
      </g>
      <g>
        <path d="M1132.63,322.72c0,4.83,0,9.65,0,14.48,0,.8,.02,1.61,.04,2.41,.01,.54,.47,1.04,.98,1.06,1.74,.06,3.48,.12,5.21,.18,.3,.01,.8,.48,.83,.76,.01,.13,.09,.26,.09,.39,0,3.35,0,6.7-.02,10.05,0,.55-.47,1.08-.94,1.11-.27,.02-.53,.06-.8,.07-.4,.01-.8,.01-1.21,.01-7.77,0-15.55,0-23.32,0-.67,0-1.34-.03-2.01-.06-.51-.02-1.06-.52-1.09-.98-.13-1.94-.12-8.55,0-10.44,.02-.26,.5-.83,.74-.86,.4-.05,.79-.12,1.19-.13,1.2-.05,2.41-.08,3.61-.12,.27,0,.78-.53,.79-.79,0-.13,.03-.27,.03-.4,.01-.4,.03-.8,.03-1.21,0-13.14,0-26.27,0-39.41,0-.67-.04-1.34-.15-2-.03-.21-.35-.52-.55-.53-1.47-.09-2.94-.12-4.41-.17-.29,0-.76-.5-.78-.79-.03-.4-.08-.8-.09-1.2-.01-1.34-.02-2.68,0-4.02,.01-1.61,.04-3.21,.07-4.82,0-.5,.52-.98,1.04-.99,.13,0,.27-.04,.4-.04,9.78,0,19.57,0,29.35,0,.27,0,.53,.04,.8,.08,.26,.04,.45,.21,.64,.43,.35,.42,.57,.9,.8,1.38,6.19,13.22,12.37,26.43,18.58,39.63,.39,.84,.64,1.77,1.3,2.47,.09,.09,.19,.21,.3,.22,.34,.04,.52-.11,.53-.39,.02-.4,.04-.8,.04-1.2,0-9.25,0-18.5,0-27.75,0-.67-.04-1.34-.06-2.01-.01-.3-.48-.78-.75-.83-1.47-.23-2.94-.05-4.41-.13-.4-.02-.82-.04-1.18-.18-.21-.08-.35-.38-.49-.6-.06-.1-.06-.26-.06-.39,0-3.21,0-6.43,.02-9.64,0-.5,.52-1.03,1.01-1.03,8.84,0,17.68-.01,26.53-.02,.13,0,.29,0,.39,.07,.22,.14,.42,.32,.6,.51,.08,.09,.08,.25,.09,.38,.13,3.35,.14,6.7,0,10.04-.01,.28-.51,.77-.79,.79-.53,.03-1.07,.07-1.6,.09-.8,.03-1.61,.04-2.41,.07-.29,0-.77,.49-.78,.78-.03,1.34-.08,2.68-.08,4.02,0,15.82,0,31.64,0,47.45,0,1.2-.05,2.41-.08,3.61-.01,.48-.55,.99-1.05,1.02-.13,0-.26,.05-.4,.05-7.24,0-14.47-.01-21.71-.02-.58,0-1.03-.3-1.31-.78-.34-.57-.63-1.18-.92-1.78-.86-1.81-1.71-3.63-2.57-5.45-5.93-12.45-11.86-24.9-17.81-37.34-.4-.84-.71-1.74-1.3-2.49-.2-.25-.35-.4-.65-.21-.09,.05-.17,.18-.17,.28-.03,.8-.07,1.61-.07,2.41,0,4.96,0,9.92,0,14.88Z" fill="gray"/>
        <path d="M1283.61,317.1c4.56,0,9.11,0,13.67,0,.56,0,1.09,.44,1.1,.91,.1,3.48,.14,6.96-.02,10.45-.01,.25-.52,.75-.82,.75-.94,0-1.87,.03-2.81,.07-.26,.01-.56,.02-.77,.14-.21,.12-.46,.37-.49,.59-.1,.66-.13,1.33-.13,2,0,5.9,0,11.79,0,17.69,0,.94,.1,1.88-.16,2.8-.06,.23-.31,.45-.53,.57-.22,.12-.52,.15-.78,.15-4.42,0-8.84,0-13.26-.02-.7,0-1.2-.54-1.22-1.28-.01-.4-.01-.8-.02-1.21-.02-1.07-.04-2.14-.09-3.21,0-.08-.15-.18-.25-.23-.11-.06-.31-.16-.36-.12-.4,.35-.8,.71-1.16,1.1-2.42,2.64-5.38,4.35-8.83,5.29-1.17,.32-2.32,.62-3.53,.72-.93,.08-1.86,.22-2.79,.32-1.47,.16-2.94,.2-4.41,.08-1.87-.16-3.75-.27-5.59-.6-5.92-1.08-11.21-3.5-15.68-7.6-4.03-3.7-6.89-8.18-8.65-13.34-.95-2.79-1.64-5.66-1.83-8.62-.06-.94-.17-1.87-.25-2.8-.17-1.87-.16-3.75-.01-5.62,.11-1.34,.21-2.67,.34-4.01,.44-4.3,1.53-8.42,3.34-12.35,1.24-2.69,2.85-5.15,4.84-7.36,3.68-4.09,8.17-6.86,13.5-8.27,3.91-1.04,7.89-1.57,11.93-1.31,2.53,.16,5.05,.51,7.51,1.24,3.01,.9,5.67,2.37,8.03,4.4,.81,.7,1.56,1.47,2.33,2.21,.2,.19,.45,.25,.72,.09,.09-.05,.17-.19,.19-.31,.25-1.19,.08-2.4,.13-3.6,.02-.53,.07-1.07,.09-1.6,.01-.3,.48-.82,.74-.85,.13-.01,.26-.07,.4-.07,4.42,0,8.84,0,13.26,.02,.5,0,1,.53,1.03,1.03,0,.13,.05,.26,.06,.4,.01,.27,.02,.54,.02,.8,0,6.83,0,13.67,0,20.51,0,.4-.06,.8-.1,1.2-.02,.23-.6,.72-.87,.73-.27,.01-.53,.08-.79,.08-4.69-.01-9.38-.03-14.06-.05-.38,0-.76-.32-.86-.7-.2-.78-.45-1.55-.59-2.34-.21-1.2-.65-2.33-1.19-3.4-1.71-3.39-4.37-5.71-8.01-6.85-.51-.16-1.04-.25-1.57-.31-1.47-.18-2.94-.19-4.41-.09-3.2,.21-5.96,1.45-8.34,3.55-1.63,1.43-2.9,3.15-3.9,5.07-1.19,2.27-1.97,4.67-2.5,7.18-.93,4.37-.92,8.79-.64,13.21,.14,2.21,.91,6.27,2.17,8.94,.52,1.1,1.09,2.15,1.78,3.14,2.01,2.88,4.81,4.59,8.15,5.49,.39,.1,.79,.14,1.19,.19,2.14,.26,4.27,.25,6.42,.05,1.76-.17,3.39-.72,4.96-1.5,2.36-1.18,4.09-2.98,5.32-5.3,.88-1.67,1.47-3.43,1.71-5.31,.04-.34-.33-.72-.75-.73-1.61-.02-3.21-.03-4.82-.06-.4,0-.8-.08-1.2-.11-.29-.02-.75-.51-.76-.82-.02-1.74-.06-3.48-.06-5.22,0-1.61,.02-3.22,.04-4.82,0-.67,.57-1.19,1.3-1.2,.8-.01,1.61-.02,2.41-.02,3.75,0,7.5,0,11.25,0v.04Z" fill="gray"/>
        <path d="M906.99,317.07c4.15,0,8.31,0,12.46,0,.53,0,1.07,.06,1.58,.18,.22,.05,.39,.33,.55,.53,.07,.09,.1,.25,.1,.37,0,3.35,0,6.7,0,10.05,0,.48-.54,.99-1.05,1.01-.94,.03-1.87,.03-2.81,.07-.26,0-.56,.04-.78,.16-.22,.12-.48,.36-.51,.57-.09,.79-.13,1.6-.13,2.4,0,6.03,0,12.06,0,18.09,0,.67,.07,1.35-.17,1.99-.08,.22-.32,.4-.52,.56-.09,.08-.24,.11-.37,.11-4.55,0-9.11,.01-13.66,.01-.64,0-1.18-.61-1.2-1.34-.02-.8-.01-1.61-.03-2.41-.01-.67,.07-1.34-.19-1.98-.04-.09-.17-.15-.28-.19-.12-.04-.33-.11-.39-.05-.56,.57-1.09,1.18-1.66,1.75-2.12,2.14-4.69,3.53-7.54,4.42-1.54,.48-3.1,.8-4.71,.94-1.6,.14-3.19,.44-4.8,.38-3.35-.11-6.67-.4-9.94-1.24-7.75-1.98-13.79-6.34-18.19-12.98-2.47-3.73-3.98-7.85-4.89-12.23-.63-3.04-.8-6.1-.83-9.19-.04-3.63,.2-7.23,.93-10.79,1.1-5.32,3.06-10.25,6.45-14.55,3.77-4.78,8.6-7.99,14.47-9.59,3.77-1.03,7.61-1.56,11.52-1.39,2.68,.12,5.32,.48,7.92,1.22,3.29,.94,6.15,2.59,8.68,4.85,.7,.62,1.36,1.28,2.05,1.91,.24,.22,.5,.21,.73-.02,.08-.08,.18-.19,.19-.29,.04-1.61,.05-3.21,.09-4.82,0-.26,.09-.53,.17-.78,.04-.11,.17-.18,.26-.27,.21-.19,.46-.26,.74-.26,4.29,0,8.57,0,12.86,0,.26,0,.55,.05,.76,.18,.21,.13,.39,.36,.49,.59,.1,.24,.12,.52,.12,.79,0,7.24,0,14.47,0,21.71,0,.27,0,.56-.11,.79-.1,.23-.32,.42-.52,.59-.09,.07-.25,.08-.38,.08-4.95,0-9.91,0-14.86,0-.32,0-.78-.41-.85-.71-.03-.13-.09-.26-.1-.39-.06-1.22-.47-2.37-.85-3.5-1.12-3.29-3.12-5.89-6.21-7.58-1.42-.78-2.91-1.33-4.55-1.45-1.34-.1-2.67-.13-4.01-.03-3.35,.23-6.19,1.58-8.63,3.84-1.59,1.47-2.82,3.24-3.78,5.16-1.33,2.65-2.18,5.47-2.58,8.41-.16,1.2-.3,2.39-.42,3.59-.24,2.41-.24,4.82,.02,7.22,.12,1.07,.26,2.13,.38,3.19,.26,2.28,.95,4.45,1.84,6.55,.57,1.35,1.33,2.62,2.28,3.77,2.51,3.05,5.74,4.73,9.67,5.1,1.88,.18,3.74,.12,5.62-.04,1.63-.14,3.14-.65,4.6-1.33,3.08-1.43,5.11-3.86,6.33-6.95,.44-1.11,.91-2.23,1-3.46,.04-.56-.3-1.1-.83-1.11-.94-.01-1.88-.01-2.81-.04-1.06-.03-2.14,.13-3.19-.14-.21-.06-.38-.34-.54-.55-.07-.1-.07-.26-.07-.39,0-3.35,0-6.7,0-10.04,0-.53,.48-1.01,.99-1.02,.8-.02,1.61-.04,2.41-.05,3.89,0,7.77,0,11.66,0h0Z" fill="gray"/>
        <path d="M1075.5,314.37c0-5.22,0-10.45,0-15.67,0-.53-.04-1.07-.07-1.6-.01-.29-.49-.78-.78-.79-1.34-.04-2.67-.07-4.01-.1-.27,0-.53-.03-.8-.04-.52-.02-1.03-.49-1.05-1-.04-1.6-.1-3.21-.08-4.81,.01-1.74-.13-3.48,.13-5.21,.04-.23,.58-.81,.78-.83,.13,0,.27-.02,.4-.03,.13,0,.27-.02,.4-.02,8.7,0,17.41,0,26.11,0,.13,0,.27,.02,.4,.03,.67,.02,1.18,.57,1.19,1.3,.01,1.07,.02,2.14,.02,3.21,0,1.88,0,3.75,0,5.63,0,1.31-.25,1.8-1.96,1.77-.8-.02-1.61,.01-2.4,.1-.21,.02-.51,.29-.56,.5-.12,.51-.16,1.05-.16,1.58-.01,3.35,0,6.7,0,10.05,0,6.56-.04,13.13,.02,19.69,.03,2.83-.25,5.62-.73,8.39-.51,2.92-1.54,5.68-3.19,8.17-1.82,2.74-4.24,4.79-7.16,6.3-1.67,.86-3.42,1.52-5.23,2.01-2.06,.56-4.15,1.02-6.29,1.21-8.13,.71-8.07,.64-15.63-.02-2.91-.25-6.61-1.16-9.32-2.28-.62-.25-1.23-.53-1.83-.82-5.13-2.48-8.36-6.55-9.97-11.96-.46-1.54-.79-3.1-.96-4.71-.26-2.4-.39-4.8-.39-7.22,.02-8.97,.01-17.95,0-26.92,0-1.07-.05-2.14-.09-3.21-.01-.32-.46-.78-.77-.79-1.2-.04-2.41-.08-3.61-.12-.51-.02-.98-.51-1-1.05-.04-1.07-.07-2.14-.07-3.21,0-2.01,0-4.02,.02-6.03,0-1,.51-1.56,1.38-1.58,.27,0,.54-.01,.8-.02,.4,0,.8,0,1.21,0,8.57,0,17.14,0,25.71,0,.67,0,1.34,.03,2.01,.05,.28,0,.83,.47,.86,.73,.02,.13,.1,.26,.1,.39,0,3.21,0,6.42,0,9.64,0,.55-.49,1.08-.96,1.1-.54,.02-1.07,.03-1.61,.05-.94,.02-1.88,.01-2.81,.09-.22,.02-.47,.27-.6,.49-.12,.22-.14,.51-.15,.77-.02,.8-.02,1.61-.02,2.41,0,9.24,0,18.49,0,27.73,0,1.74,.11,3.48,.17,5.22,.05,1.36,.48,2.63,1.01,3.87,.65,1.53,1.71,2.73,3.16,3.52,.94,.5,1.91,.96,3.01,1.07,.67,.07,1.32,.21,1.99,.3,1.2,.18,2.4,.19,3.6,.03,.93-.13,1.87-.23,2.78-.44,2.79-.65,4.85-2.24,5.91-4.93,.59-1.49,.99-3.06,1.03-4.69,.03-1.2,.06-2.41,.06-3.62,0-4.55,0-9.11,0-13.66Z" fill="gray"/>
        <path d="M1480.43,315.27c0-5.36,0-10.72,0-16.07,0-.54-.02-1.07-.04-1.61-.02-.81-.46-1.33-1.15-1.35-1.2-.04-2.41-.04-3.61-.13-.2-.01-.45-.3-.57-.52-.12-.22-.15-.52-.15-.78,0-3.08,0-6.16,.01-9.24,0-.26,.06-.56,.2-.77,.14-.21,.4-.4,.64-.46,.39-.09,.8-.07,1.2-.07,9.24,0,18.48,0,27.72,0,.53,0,1.07,.04,1.59,.16,.21,.05,.39,.32,.55,.52,.08,.09,.12,.24,.12,.37,.15,3.34,.16,6.69,0,10.03-.01,.24-.58,.75-.83,.76-.4,.02-.8,.08-1.2,.09-1.07,.03-2.14,.04-3.21,.06-.28,0-.84,.48-.85,.71-.03,.53-.08,1.07-.08,1.6,0,10.05,0,20.09,0,30.14,0,1.07,.06,2.14,.07,3.21,.02,1.49,.37,2.92,.89,4.31,1.01,2.74,3.05,4.33,5.82,5.02,.91,.22,1.85,.32,2.77,.45,1.2,.16,2.4,.15,3.6-.02,.79-.12,1.59-.24,2.38-.37,1.21-.19,2.29-.74,3.3-1.41,1.39-.92,2.33-2.22,2.88-3.77,.54-1.51,.96-3.07,.95-4.7,0-.8,.04-1.61,.04-2.41,0-10.18,0-20.36,0-30.54,0-.53-.01-1.08-.12-1.6-.04-.22-.33-.52-.53-.54-.93-.09-1.87-.1-2.8-.13-.8-.03-1.61-.04-2.41-.06-.24,0-.74-.56-.76-.82-.02-.27-.09-.53-.09-.79,0-2.81-.01-5.63,0-8.44,0-.4,.05-.81,.19-1.18,.08-.22,.34-.41,.56-.51,.23-.1,.52-.11,.78-.11,8.84,0,17.68,0,26.51,.01,.76,0,1.29,.48,1.29,1.19,0,3.21-.01,6.42-.03,9.64,0,.53-.48,1.02-.99,1.04-1.07,.04-2.14,.08-3.21,.12-.29,.01-.75,.49-.77,.79-.02,.27-.06,.53-.07,.8,0,1.07,0,2.14,0,3.21,0,8.84,0,17.68,0,26.52,0,1.21,.02,2.41-.04,3.62-.15,2.82-.57,5.59-1.42,8.29-1.65,5.25-4.88,9.14-9.84,11.59-1.2,.59-2.43,1.12-3.71,1.51-2.69,.82-5.42,1.48-8.24,1.65-1.07,.06-2.13,.19-3.2,.29-2.14,.19-4.28,.23-6.42,.09-2.14-.14-4.28-.27-6.4-.56-3.19-.44-6.3-1.23-9.25-2.56-1.84-.83-3.54-1.88-5.07-3.21-2.81-2.45-4.62-5.54-5.69-9.06-.55-1.79-.95-3.62-1.06-5.51-.11-1.87-.25-3.74-.24-5.62,.01-4.29,0-8.57,0-12.86Z" fill="gray"/>
        <path d="M957.23,341.21c0-3.08,0-6.16,0-9.24,0-.53,.07-1.06,.1-1.6,.01-.25,.52-.85,.74-.87,.13,0,.27-.04,.4-.04,4.69,0,9.37-.02,14.06-.02,.69,0,1.26,.54,1.34,1.22,.04,.4,.08,.8,.12,1.2,.05,.53,.11,1.07,.16,1.6,.12,1.36,.6,2.61,1.22,3.8,.82,1.59,2.05,2.81,3.67,3.59,1.33,.64,2.72,1.11,4.22,1.21,1.47,.1,2.95,.13,4.41-.01,1.76-.17,3.4-.74,4.86-1.74,.55-.37,1.05-.83,1.49-1.33,1.14-1.28,1.49-2.81,1.26-4.48-.09-.67-.35-1.28-.75-1.84-.48-.66-1.06-1.21-1.69-1.7-1.28-.99-2.69-1.76-4.16-2.41-1.47-.64-2.97-1.2-4.48-1.76-4.26-1.59-8.52-3.15-12.78-4.74-1.13-.42-2.22-.91-3.34-1.36-2.67-1.07-4.86-2.8-6.78-4.89-1.65-1.8-2.81-3.87-3.39-6.29-.32-1.31-.59-2.61-.62-3.96-.02-1.34-.08-2.68,0-4.02,.41-6.62,3.36-11.73,9.12-15.14,2.8-1.66,5.84-2.62,9.05-3.06,.53-.07,1.07-.09,1.6-.18,3.48-.6,6.95-.34,10.39,.29,3.07,.57,5.88,1.78,8.21,3.94,.59,.55,1.14,1.13,1.72,1.68,.08,.08,.23,.11,.35,.12,.35,.04,.49-.13,.5-.46,.04-1.2,.09-2.4,.14-3.6,.01-.3,.48-.79,.76-.81,.27-.02,.53-.05,.8-.05,3.75,0,7.5,0,11.25,0,.27,0,.53,.03,.8,.05,.31,.02,.82,.45,.86,.72,.02,.13,.08,.26,.08,.39,.01,6.29,.02,12.59,.02,18.88,0,.26-.09,.55-.23,.76-.14,.21-.38,.38-.62,.48-.24,.09-.53,.09-.79,.09-4.02,0-8.03,0-12.05,0-.26,0-.53-.07-.79-.1-.26-.03-.74-.54-.77-.83-.07-.66-.11-1.33-.21-1.99-.08-.53-.19-1.05-.36-1.56-.99-3.05-3.13-4.87-6.16-5.78-2.22-.67-4.48-.82-6.76-.61-1.75,.16-3.41,.67-4.89,1.66-1.02,.68-1.8,1.59-2.3,2.72-.45,1.02-.54,2.07-.27,3.14,.2,.8,.7,1.44,1.28,2.01,.67,.66,1.43,1.21,2.24,1.69,1.61,.96,3.32,1.74,5.08,2.37,1.51,.54,3.02,1.09,4.55,1.56,3.19,1,6.33,2.14,9.47,3.29,1.5,.55,2.98,1.18,4.44,1.86,2.58,1.19,4.82,2.88,6.78,4.93,1.99,2.07,3.34,4.47,3.99,7.3,.36,1.58,.62,3.15,.63,4.76,.02,2.28-.06,4.53-.59,6.78-1.26,5.4-4.29,9.44-9.02,12.23-2.92,1.72-6.08,2.75-9.44,3.15-.8,.1-1.6,.17-2.4,.27-2.27,.29-4.54,.31-6.81-.02-.53-.08-1.06-.14-1.59-.2-4.12-.48-7.71-2.1-10.71-4.99-.38-.37-.77-.74-1.17-1.09-.08-.07-.23-.09-.35-.09-.35-.02-.49,.15-.49,.47-.02,1.2-.06,2.41-.1,3.61-.02,.49-.54,1-1.05,1-4.42,0-8.83,0-13.25-.01-.47,0-.92-.55-.95-1.11-.02-.4-.05-.8-.05-1.2,0-1.21,0-2.41,0-3.62,0-2.01,0-4.02,0-6.03h0Z" fill="gray"/>
        <path d="M818.52,284.27c4.29,0,8.57,0,12.86,0,.8,0,1.6,.06,2.4,.08,.25,0,.83,.51,.86,.74,.03,.27,.1,.53,.1,.8,0,2.95,0,5.9-.01,8.84,0,.26-.08,.52-.17,.77-.09,.27-.28,.49-.53,.54-.39,.08-.79,.14-1.19,.16-1.2,.04-2.41,.04-3.61,.11-.2,.01-.45,.28-.57,.49-.12,.22-.15,.51-.16,.76-.03,.67-.02,1.34-.02,2.01,0,12.6,0,25.19,0,37.79,0,.67,0,1.34,.02,2.01,.01,.84,.41,1.31,1.13,1.33,1.34,.04,2.67,.08,4.01,.13,.46,.02,1,.58,1.03,1.05,.03,.53,.08,1.07,.08,1.6,.01,1.61,.02,3.22,0,4.82-.02,1.34,.11,2.68-.12,4.01-.04,.26-.54,.79-.8,.8-.13,0-.26,.07-.39,.08-.27,.02-.54,.02-.8,.02-9.38,0-18.75,0-28.13,0-.53,0-1.08-.04-1.59-.16-.22-.05-.39-.34-.55-.55-.07-.1-.08-.26-.08-.39-.09-3.48-.17-6.96,.03-10.44,.02-.27,.52-.8,.78-.81,.67-.04,1.33-.09,2-.12,.93-.04,1.88,.1,2.8-.17,.25-.07,.46-.27,.5-.55,.08-.66,.14-1.32,.14-1.98,.01-5.9,0-11.79,0-17.69,0-6.97,0-13.94,0-20.9,0-.8-.05-1.61-.07-2.41,0-.26-.54-.74-.82-.75-1.47-.05-2.94-.1-4.41-.16-.48-.02-.97-.54-.97-1.07,0-3.21,0-6.43,0-9.64,0-.52,.5-1.05,.97-1.07,.67-.03,1.34-.07,2-.08,3.22,0,6.43,0,9.65,0,1.21,0,2.41,0,3.62,0Z" fill="gray"/>
        <path d="M777.04,318.05c-.39,.16-.77,.1-1.14-.04-.26-.1-.45-.26-.52-.5,0-.03,.2-.15,.33-.19,.5-.16,1.02-.24,1.54-.09-.07,.28-.14,.55-.21,.83Z" fill="gray"/>
        <path d="M1378.62,341.82c0-.13-.02-.29-.1-.39-.16-.21-.34-.5-.55-.54-1.45-.31-2.94-.03-4.4-.21-.46-.06-1.07-.52-1.21-.92-1.34-3.92-2.73-7.83-4.06-11.76-.26-.76-.54-1.51-.88-2.24-.89-1.88-2.29-3.3-4.12-4.25-1.19-.61-2.44-1.11-3.8-1.23h0c-.9,.24-1.78,.15-2.67-.09-.34-.09-.43-.24-.34-.56,.07-.25,.18-.47,.47-.53,1.01-.22,2.02-.43,3.05-.15h0c1.21-.14,2.35-.5,3.47-.94,3.25-1.29,5.68-3.48,7.17-6.66,.86-1.83,1.42-3.76,1.54-5.79,.08-1.34,.07-2.68,.06-4.02,0-1.48-.3-2.92-.68-4.35-.96-3.65-2.99-6.55-6.02-8.75-1.63-1.19-3.44-2.05-5.37-2.67-2.7-.86-5.47-1.26-8.28-1.44-1.07-.07-2.14-.04-3.21-.04-11.66,0-23.31,0-34.97,0-.67,0-1.34,0-2.01,0-.27,0-.54,.01-.8,.02-.78,.02-1.3,.48-1.3,1.19,0,3.21,0,6.43,.01,9.64,0,.13,0,.3,.06,.39,.16,.21,.33,.47,.56,.54,.37,.12,.79,.13,1.19,.14,1.2,.05,2.41,.08,3.61,.11,.28,0,.77,.51,.78,.79,.03,.94,.07,1.87,.07,2.81,0,12.33,0,24.66,0,36.99,0,.8,0,1.61-.03,2.41,0,.26-.09,.51-.16,.77-.08,.29-.28,.44-.55,.51-1.32,.3-2.67,.1-4,.17-.98,.05-1.57,.53-1.57,1.4,0,3.22,0,6.43,0,9.65,0,.26,.03,.56,.16,.78,.12,.22,.37,.48,.59,.5,.79,.1,1.6,.14,2.4,.14,8.98,0,17.95,0,26.93,0,.54,0,1.07,0,1.61-.01,.27,0,.53-.06,.8-.07,.48-.02,.99-.56,.99-1.07,.01-3.35,.02-6.7,.03-10.04,0-.13-.06-.26-.08-.39-.03-.26-.54-.74-.82-.78-1.6-.24-3.21-.06-4.81-.13-1.1-.04-1.53-.39-1.54-1.36,0-4.15,0-8.31,0-12.46,0-.26,.06-.54,.19-.77,.12-.22,.32-.48,.53-.55,.91-.28,1.85-.12,2.78-.16,1.49-.07,2.94,.16,4.37,.54,1.77,.46,3.15,1.47,4.12,2.99,.43,.67,.75,1.42,1.04,2.16,.34,.87,.6,1.77,.9,2.66,1.88,5.58,3.75,11.16,5.63,16.74,.21,.63,.47,1.25,.72,1.87,.23,.55,.68,.78,1.25,.8,.13,0,.27,.02,.4,.02,6.43,0,12.86,0,19.29,0,.27,0,.55,0,.79-.1,.24-.09,.44-.29,.62-.48,.08-.08,.09-.25,.1-.38,.18-3.48,.13-6.96,.02-10.44Zm-27.25-34.22c-.39,2.49-2.02,4.84-5.04,5.57-1.56,.38-3.13,.62-4.75,.56-1.6-.05-3.2-.05-4.8-.07-.23,0-.78-.55-.81-.79-.04-.39-.14-.79-.14-1.18-.01-2.27,0-4.53,0-7.3,.07-2.16-.15-4.83,.14-7.49,.02-.2,.33-.39,.53-.55,.09-.07,.25-.09,.37-.09,2.27,0,4.53-.01,6.8-.02,1.22,0,2.37,.31,3.48,.79,2.39,1.04,3.8,2.84,4.25,5.4,.3,1.73,.25,3.45-.02,5.18Z" fill="gray"/>
        <path d="M790.13,330.2c-.78-5.04-3.43-8.62-8.17-10.58-1.11-.46-2.23-.9-3.46-1-.54-.05-1.04-.23-1.48-.57-.2-.73-1.32-.09-1.42-.96,.48,.82,1.06,.43,1.63,.14,1.18-.65,2.51-.89,3.73-1.45,4.64-2.14,7.2-5.81,8.11-10.74,.25-2.81,.31-5.59-.46-8.36-.77-2.79-2.14-5.18-4.2-7.18-2.47-2.39-5.42-3.85-8.78-4.55-2.1-.44-4.22-.68-6.37-.68-13.12,.02-26.23,.01-39.35,.01-.4,0-.8,.02-1.2,.04-.13,0-.26,.05-.4,.07-.3,.03-.75,.5-.77,.81-.03,.53-.09,1.07-.09,1.6-.01,2.28-.01,4.55,0,6.83,0,2.45,.12,2.57,2.38,2.59,.8,0,1.61,0,2.41,.02,.27,0,.55,0,.79,.11,.22,.1,.51,.29,.56,.5,.12,.51,.18,1.05,.18,1.57,0,13.52,0,27.04,0,40.57,0,.13,0,.27-.02,.4,0,.13-.02,.27-.02,.4-.01,.32-.44,.83-.71,.85-.4,.03-.79,.1-1.19,.12-1.07,.04-2.14,.05-3.21,.08-.5,.01-1.07,.53-1.09,.98-.02,.4-.08,.8-.08,1.2,0,2.68,0,5.36,0,8.03,0,1.7,.27,2.22,2,2.19,.4,0,.8,0,1.2,0,12.45,0,24.9-.01,37.34,0,2.42,0,4.8-.22,7.19-.58,2-.3,3.91-.87,5.74-1.71,5.31-2.43,8.21-6.67,9.12-12.35,.45-2.79,.51-5.59,.07-8.4Zm-36.43-26.22c.03-2.27,.06-4.53,.09-6.8,0-.26,.47-.89,.67-.9,2.53-.13,5.06-.15,7.59,.02,1.36,.09,2.59,.62,3.7,1.39,1.5,1.04,2.37,2.48,2.66,4.29,.28,1.73,.25,3.46-.11,5.17-.38,1.78-1.32,3.21-2.97,4.05-1.19,.6-2.46,1.04-3.82,1.06-2.27,.03-4.53,0-6.8,0-.12,0-.28-.03-.36-.1-.19-.17-.43-.36-.49-.58-.11-.38-.12-.79-.12-1.19-.01-2.13,0-4.27,0-6.4-.01,0-.02,0-.03,0Zm16.1,28.79c-.08,1.35-.41,2.64-.93,3.87-.53,1.26-1.41,2.26-2.63,2.91-.94,.5-1.92,.89-3.01,1.01-1.6,.16-3.19,.21-4.79,.18-1.33-.02-2.66-.05-3.99-.13-.2-.01-.47-.29-.54-.51-.12-.36-.16-.77-.16-1.16-.01-2.4,0-4.8,0-7.2,0-2.27,0-4.53,0-6.8,0-.26,.04-.53,.06-.79,.03-.51,.53-1.03,1.02-1.04,2-.02,4-.05,5.99-.04,1.34,0,2.67,.25,3.93,.68,2.12,.72,3.64,2.15,4.42,4.3,.56,1.53,.73,3.1,.64,4.72Z" fill="gray"/>
        <path d="M1461.42,314.94c-.1-3.24-.75-6.38-1.69-9.46-1.15-3.75-2.9-7.19-5.35-10.26-5.56-6.97-12.99-10.49-21.62-11.79-1.45-.22-2.92-.3-4.39-.44-2.27-.21-4.54-.2-6.81,.03-.93,.1-1.86,.21-2.79,.28-3.63,.28-7.11,1.21-10.45,2.61-7.61,3.19-13.16,8.57-16.46,16.17-1.55,3.58-2.49,7.34-2.79,11.25-.26,3.35-.28,6.69-.06,10.04,.21,3.23,.84,6.38,1.87,9.43,2.66,7.82,7.58,13.76,14.91,17.63,3.94,2.08,8.16,3.29,12.58,3.79,.8,.09,1.6,.14,2.39,.23,2.93,.36,5.87,.35,8.8,0,.66-.08,1.33-.13,2-.19,4.16-.38,8.13-1.51,11.9-3.3,5.72-2.71,10.18-6.82,13.38-12.3,2.54-4.35,3.88-9.09,4.43-14.06,.22-1.99,.22-4.01,.3-5.67-.06-1.56-.11-2.76-.15-3.97Zm-20.98,13.03c-.26,1.85-.81,3.65-1.53,5.38-.62,1.49-1.41,2.88-2.46,4.11-1.6,1.88-3.6,3.13-5.96,3.87-2.47,.77-4.99,.9-7.53,.64-1.73-.18-3.4-.64-4.98-1.41-1.84-.9-3.34-2.19-4.54-3.84-.63-.87-1.15-1.81-1.58-2.78-.82-1.84-1.4-3.77-1.71-5.75-.5-3.3-.85-6.62-.82-9.98,.02-3.09,.39-6.14,.83-9.18,.28-1.98,.86-3.91,1.65-5.76,.42-.98,.91-1.93,1.53-2.81,1.93-2.76,4.53-4.48,7.84-5.11,.53-.1,1.05-.2,1.57-.3,.13-.03,.26-.05,.39-.07,2.62-.38,6.18,.12,8.64,1.13,2.44,1,4.28,2.66,5.71,4.85,.88,1.36,1.52,2.83,1.98,4.36,.53,1.79,1.03,3.59,1.18,5.47,.22,2.66,.66,5.31,.55,7.92,.09,3.16-.34,6.21-.77,9.26Z" fill="gray"/>
        <path d="M1619.92,299.35c-1.13-4.62-3.64-8.3-7.6-10.94-2.6-1.73-5.49-2.78-8.53-3.35-3.03-.57-6.09-.85-9.18-.81-5.09,.07-10.18,.02-15.26,.02-4.28,0-8.57,0-12.85,0-1.87,0-3.75,0-5.62,0-.53,0-1.07,.05-1.6,.07-.48,.02-.99,.55-.99,1.05,0,3.21-.01,6.42-.01,9.64,0,.54,.48,1.07,.95,1.09,1.47,.06,2.94,.11,4.41,.16,.29,0,.8,.48,.82,.75,.03,.53,.07,1.07,.07,1.6,0,6.03,0,12.05,0,18.08,0,6.96,0,13.93,0,20.89,0,.67-.02,1.34-.03,2.01-.01,.58-.43,1.04-.95,1.06-1.07,.03-2.14,.04-3.21,.08-.4,.01-.8,.08-1.19,.12-.29,.03-.78,.51-.8,.79-.26,3.34-.07,6.69-.1,10.03,0,.26,.03,.56,.14,.78,.11,.23,.32,.51,.54,.56,.51,.13,1.06,.18,1.59,.18,10.04,0,20.08,0,30.13,0,.4,0,.8-.05,1.2-.07,.23-.01,.71-.59,.76-.84,.21-1.2,.09-2.4,.1-3.61,.02-1.87,0-3.75,0-5.62,0-.4-.03-.8-.05-1.2-.02-.48-.55-1.06-1-1.07-1.87-.03-3.75-.05-5.62-.08-1.09-.02-1.51-.4-1.52-1.37,0-3.21,0-6.43,0-9.64,0-.26,.02-.55,.14-.77,.12-.21,.37-.47,.59-.49,2.14-.2,4.28,0,6.42,.06,2.81,.08,5.62,.09,8.43-.05,2.83-.14,5.56-.74,8.24-1.61,1.15-.37,2.23-.88,3.3-1.45,2.94-1.56,5.12-3.85,6.59-6.81,.96-1.92,1.55-3.97,1.94-6.1,.81-4.41,.85-8.78-.21-13.15Zm-19.32,9.5c-.13,1.35-.59,2.6-1.25,3.77-.83,1.46-2.1,2.4-3.69,2.91-1.53,.49-3.11,.76-4.73,.71-1.87-.06-3.74-.06-5.61-.09-.24,0-.74-.56-.76-.83-.03-.53-.1-1.06-.1-1.59-.01-2.54,0-5.08,0-7.62-.01,0-.02,0-.04,0,.04-3.07,.07-6.15,.14-9.22,0-.21,.3-.42,.49-.6,.08-.08,.25-.08,.38-.08,2.54,0,5.08,0,7.61,0,1.24,0,2.37,.41,3.45,.95,.97,.49,1.79,1.17,2.42,2.06,.94,1.33,1.56,2.8,1.71,4.43,.17,1.74,.14,3.47-.02,5.21Z" fill="gray"/>
      </g>
      <g>
        <path d="M1615.9,168.42c-.72-.35-1.45-.68-2.18-1.02-1.09-.52-2.18-1.02-3.25-1.56-1.68-.85-3.24-1.88-4.66-3.12-.94-.82-1.58-1.81-1.79-3.06-.24-1.45-.49-2.91-.47-4.39,0-.68-.18-1.32-.61-1.87-.33-.42-.66-.85-.96-1.29-1.58-2.37-2.66-4.93-2.96-7.8-.16-1.47-.33-2.93-.28-4.41,.07-2.14,.16-4.29,.22-6.43,.04-1.61,.1-3.22,.05-4.82-.05-1.48-.46-2.89-1.09-4.25-1.84-3.99-4.86-6.69-8.98-8.1-2.02-.7-4.12-1.19-6.29-1.19-2.82,0-5.61-.33-8.4-.75-2.13-.33-4.18-.92-6.17-1.73-.86-.35-1.68-.83-2.48-1.31-1.39-.85-2.54-1.95-3.47-3.29-.36-.52-.46-1.06-.17-1.48,.81-1.23,1.62-2.46,2.47-3.66,.22-.31,.54-.56,1-.58,3.21-.14,6.43-.24,9.63-.47,4.01-.28,8.03-.38,12.05-.29,1.47,.04,2.95,.09,4.41,.3,3.6,.52,7.22,.48,10.83,.35,2.68-.1,5.3-.64,7.9-1.32,2.48-.65,4.76-1.77,7.01-2.95,.11-.06,.21-.17,.27-.29,.13-.23,.33-.47,.33-.71-.03-1.9-.76-3.64-1.28-5.43-.05-.19-.41-.39-.64-.41-1.73-.17-3.46-.24-5.16-.67-.64-.16-1.33-.15-2-.15-1.34-.01-2.68,.01-4.02,.04-2.81,.05-5.63,.11-8.44,.17-1.74,.04-3.48-.09-5.22-.26-.8-.08-1.58-.25-2.36-.47-3.47-.98-6.29-2.91-8.56-5.68-.25-.3-.37-.71-.53-1.07-.05-.12-.08-.27-.06-.39,.02-.13,.09-.25,.16-.36,.73-1.12,1.46-2.24,2.2-3.35,.63-.95,1.54-1.43,2.66-1.61,2.12-.34,4.25-.57,6.4-.58,1.34,0,2.68-.05,4.02-.09,2.61-.08,4.98-.94,7.14-2.37,.22-.15,.43-.32,.64-.48,.36-.27,.61-1.02,.47-1.45-.32-1.02-.62-2.05-.96-3.06-.22-.67-.71-1.15-1.35-1.41-1.24-.49-2.51-.93-3.77-1.38-3.89-1.39-10.5-3-14.91-2.94-.8,.01-1.61,.02-2.39-.21-.29-.08-.48-.22-.59-.48-.7-1.61-.92-3.35-1.4-5.02-.21-.73,.1-1.3,.58-1.81,1.12-1.18,2.44-2.08,3.87-2.84,1.79-.95,3.67-1.61,5.73-1.65,3.49-.08,6.97-.02,10.43,.47,1.87,.27,3.73,.38,5.61,.19,.55-.06,1.03-.33,1.26-.86,.26-.61,.47-1.25,.7-1.88,.86-2.35,.67-2.88-.58-4.89-.78-1.26-1.74-2.38-2.86-3.35-1.33-1.16-2.84-2-4.54-2.48-1.55-.44-3.11-.77-4.73-.84-2.41-.1-4.82-.25-7.23-.13-1.07,.05-2.14,.02-3.21,0-.4,0-.81-.05-1.19-.17-.37-.12-.74-.31-.92-.71-.45-.98-.74-2.01-.81-3.09-.09-1.2-.15-2.41-.22-3.61-.1-1.88-.31-3.74-.6-5.59-.21-1.36-.78-2.56-1.59-3.64-.4-.53-.87-1.02-1.33-1.5-.97-1.01-2.11-1.51-3.57-1.51-1.64,0-3.19,.33-4.73,.8-.9,.27-1.7,.77-2.42,1.39-.71,.61-1.36,1.3-1.89,2.07-.31,.45-.49,.94-.3,1.5,.39,1.14,.78,2.28,1.14,3.43,.12,.38,.16,.79,.03,1.19-.45,1.4-.95,2.79-1.62,4.1-1.48,2.88-3.38,5.46-5.73,7.7-.4,.38-.93,.56-1.46,.57-2.14,.04-4.29,.05-6.43,.02-1.21-.02-2.43-.18-3.55-.6-3-1.11-5.38-2.99-6.7-5.99-.37-.85-.72-1.72-.96-2.64-.69-2.59-1.43-5.16-2.27-7.7-.43-1.28-.96-2.5-1.66-3.64-.28-.45-.62-.88-.98-1.27-.57-.63-1.26-.99-2.14-.75-.52,.14-1.03,.29-1.55,.43-2.04,.55-3.6,1.77-4.68,3.56-1.19,1.97-2.04,4.07-2.03,6.43,0,.54-.05,1.07-.07,1.61-.02,.68-.24,1.31-.44,1.95-.71,2.21-1.86,4.14-3.41,5.86-1.86,2.06-4.19,3.3-6.85,3.94-1.3,.32-2.62,.57-3.94,.75-2.4,.33-4.7,1.02-7.03,1.64-.92,.24-1.78,.6-2.63,.97-1.6,.7-3.1,1.6-4.26,2.94-.25,.29-.46,.68-.29,1.11,.74,1.87,1.66,3.65,2.68,5.38,.22,.37,.63,.51,1.03,.53,.8,.02,1.61,.02,2.4-.05,3.34-.27,6.69-.32,10.04-.29,3.1,.03,6.13,.53,9.09,1.43,1.33,.11,2.18,.92,2.85,1.99,.57,.91,1.16,1.8,1.73,2.7,.31,.49,.26,1.04-.11,1.47-1.71,1.94-3.77,3.4-6.13,4.43-.98,.43-1.99,.74-3.07,.9-2.67,.39-5.33,.49-8.02,.32-.93-.06-1.87-.14-2.81-.11-1.09,.03-2.09,.31-2.89,1.18-1.08,1.18-2.23,2.31-3.35,3.46-.2,.21-.25,.87-.07,1.14,.81,1.23,1.64,2.45,2.44,3.68,.25,.38,.64,.48,1.03,.53,.66,.08,1.34,.09,2.01,.12,2.14,.09,4.28,.16,6.4,.56,.52,.1,1.06,.13,1.6,.18,3.2,.28,6.4,.56,9.61,.84,.58,.05,.98,.39,1.29,.84,.68,1,1.35,2,2.01,3,.38,.58,.28,1.29-.28,1.8-1.09,.99-2.17,2-3.32,2.92-1.47,1.17-3.06,2.15-4.76,2.96-1.35,.64-2.76,1.02-4.2,1.28-.79,.14-1.6,.12-2.39-.12-1.28-.39-2.56-.76-3.83-1.18-2.56-.83-5.21-1.24-7.87-1.55-1.77-.21-3.49,.17-5.1,.83-1.62,.67-3.03,1.71-4.22,3.02-.35,.39-.66,.87-.66,1.43,0,3.22,0,6.43,.02,9.65,0,.13,.05,.27,.11,.39,.05,.11,.13,.25,.23,.29,2.09,.89,4.21,1.7,6.45,2.17,.13,.03,.26,.05,.4,.07,.54,.08,1.06,0,1.59-.13,.52-.13,1.02-.32,1.48-.61,.67-.44,1.34-.9,2.04-1.28,3.46-1.86,7.11-3.05,11.06-3.31,3.63-.24,7.24-.1,10.83,.34,3.33,.4,6.67,.57,10.02,.69,3.48,.12,6.96,.11,10.38-.71,.27-.07,.54,.04,.75,.22,1.53,1.3,2.99,2.68,4.23,4.26,.08,.1,.11,.25,.12,.38,.01,.12,0,.26-.06,.37-1.15,2.37-2.93,4.14-5.19,5.43-1.04,.6-2.17,1.01-3.37,1.25-2.11,.42-4.23,.71-6.38,.71-1.74,0-3.48,.02-5.22-.02-2.01-.05-4.02,.02-6.02,.15-3.27,.23-6.28,1.22-9.05,2.98-1.96,1.25-3.52,2.87-4.69,4.88-1.02,1.74-1.82,3.57-2.35,5.53-1.44,5.32-2.39,10.71-2.38,16.25,0,2.55-.08,5.09-.19,7.64-.04,.94,0,1.86,.15,2.79,.11,.66,.1,1.33,.11,2,.03,1.38-.39,2.64-1.06,3.82-.33,.58-.7,1.15-1.13,1.65-.69,.81-1.42,1.6-2.19,2.35-1.56,1.52-3.38,2.61-5.5,3.2-.39,.11-.77,.24-1.15,.36-.52,.17-.98,.42-1.3,.89-.75,1.11-1.5,2.22-2.22,3.34-.3,.48-.27,1.03-.03,1.54,.79,1.7,1.57,3.41,2.54,5.01,.22,.36,.54,.61,.94,.68,1.48,.27,2.78,.95,4.02,1.75,.67,.44,1.34,.89,1.99,1.36,1.31,.94,2.6,1.89,3.9,2.84,.47,.34,.68,.87,.67,1.4-.02,1.47-.12,2.94-.17,4.42-.21,5.36-.26,10.72,.54,16.05,.07,1.89,.64,3.7,1.08,5.51,.38,1.55,.84,3.1,1.48,4.58,.2,.47,.7,.84,1.23,.86,1.2,.04,2.41,.1,3.61-.05,.28-.04,.51-.16,.69-.37,.26-.31,.55-.59,.77-.92,1.92-2.84,2.88-6.02,3.23-9.4,.28-2.67,.37-5.35,.26-8.03-.1-2.43,.22-4.84,.86-7.16,1.17-4.23,3.43-7.82,6.84-10.65,.44-.36,.93-.52,1.47-.53,1.07-.02,2.14-.03,3.21-.03,9.38,0,18.76,0,28.14,0s18.49,0,27.74,0c1.6,0,3.21-.15,4.81,.15,.42,.08,1.15,.75,3.83,3.49,.19,.19,.35,.41,.54,.59,.31,.3,.43,.69,.46,1.08,.06,.94,.07,1.87,.07,2.81,0,6.3,.02,12.6,0,18.9,0,1.75,.16,3.47,.49,5.19,.56,2.99,1.9,5.55,4.03,7.71,.23,.23,.84,.37,1.11,.27,1.66-.61,3.1-1.57,4.43-2.71,1.13-.98,1.97-2.17,2.64-3.5,.56-1.1,.79-2.27,1.06-3.44,.66-2.92,.68-5.83,.11-8.77-.46-2.37-1.07-4.7-1.58-7.05-.49-2.25-.61-4.51-.41-6.79,.03-.4,.06-.81,.17-1.19,.53-1.94,1.14-3.84,2.11-5.63,1.39-2.55,3.32-4.52,5.95-5.77,1.45-.69,2.93-1.32,4.51-1.66,.13-.03,.26-.06,.39-.09,.3-.09,.62-.63,.61-.94-.05-1.77-.82-3.37-1.17-5.07-.08-.38-.39-.71-.76-.89Zm-76.61-110.52c.98-1.45,2.21-2.69,3.54-3.82,1.36-1.16,2.95-1.83,4.65-2.28,.51-.14,1.06-.17,1.59-.22,2.82-.24,5.62-.05,8.4,.51,.57,.11,.97,.49,1.19,.98,.64,1.47,1.23,2.97,1.66,4.05,.41,1.03,.66,1.65,.9,2.28,.16,.41,.09,.82-.16,1.13-1.53,1.91-3.42,3.41-5.63,4.44-1.33,.62-2.77,.96-4.27,1.06-2.87,.18-5.6-.27-8.2-1.52-.48-.23-.97-.46-1.46-.66-.67-.26-1.13-.71-1.35-1.38-.39-1.14-.76-2.28-1.12-3.43-.13-.41,.03-.8,.26-1.14Zm-16.15,91.91c.95,1.34,2.23,2.29,3.66,3.07,1.3,.7,2.68,1.25,4.11,1.57,1.69,.37,3.37,.89,5.13,.9,1.08,0,2.1,.34,3.14,.62,2.15,.58,3.87,1.77,5.29,3.45,.87,1.03,1.58,2.16,2.03,3.44,.23,.66,.12,1.05-.46,1.28-1.87,.72-3.79,1.3-5.76,1.71-2.1,.43-4.2,.81-6.35,.89-.67,.03-1.33,.13-2,.18-1.47,.11-2.94,.2-4.4,.3,0-.03,0-.05,0-.08-1.07,0-2.14,.05-3.21-.01-2.03-.12-3.96-.63-5.72-1.66-.93-.55-1.76-1.23-2.36-2.14-.44-.67-.92-1.33-1.23-2.06-.96-2.22-1.65-4.52-1.88-6.94-.15-1.6-.17-3.21-.17-4.81,0-1.6,.05-3.21-.24-4.81-.19-1.06-.05-2.13,.17-3.19,.28-1.31,.56-2.61,1.09-3.85,.59-1.38,1.39-2.59,2.43-3.65,1.14-1.15,2.46-2.06,3.89-2.81,1.9-1,3.91-1.73,5.96-2.33,4.07-1.17,8.17-1.24,12.31-.37,1.44,.3,2.91,.46,4.28,1.04,.51,.22,.95,.49,1.25,.95,.82,1.22,1.64,2.44,2.43,3.68,.21,.33,.3,.71,.09,1.12-1.47,2.87-3.7,4.88-6.76,5.91-.5,.17-1.01,.37-1.54,.43-2.26,.28-4.49,.74-6.77,.84-1.75,.07-3.45,.44-5.13,.89-.51,.14-1,.39-1.44,.68-.32,.21-.64,.52-.8,.86-.57,1.21-.95,2.49-1.27,3.79-.11,.42,.03,.81,.26,1.14Zm28.52-62.1c-1.33-.03-2.67,0-3.18,0-2.43-.19-4.02-.31-5.63-.17-.6,.05-1.04-.31-1.34-.74-.83-1.2-1.62-2.44-2.39-3.69-.11-.19-.09-.55,.01-.76,.88-1.84,2.22-3.33,3.84-4.54,.96-.73,2.07-1.17,3.28-1.4,2.68-.51,5.33-.3,7.97,.19,1.57,.29,3.11,.76,4.65,1.17,.66,.18,1.23,.51,1.61,1.11,.73,1.12,1.46,2.24,2.18,3.36,.18,.28,.08,.79-.19,1.06-1.73,1.73-3.78,2.92-6.09,3.7-1.54,.52-3.11,.75-4.73,.72Zm40.56,63.73c0,1.36-.35,2.63-.95,3.86-.77,1.57-1.64,3.07-2.64,4.49-.77,1.1-1.69,2.08-2.75,2.91-3.36,2.66-7.2,4.06-11.47,4.25-1.21,.05-2.43-.11-3.57-.46-2.56-.8-5.02-1.86-7.04-3.71-.34-.31-.5-.74-.37-1.04,.78-1.85,1.69-3.64,2.7-5.37,.28-.48,.72-.79,1.27-.9,1.57-.31,3.15-.61,4.72-.93,1.71-.35,3.35-.92,4.94-1.64,2.26-1.03,4.02-2.61,5.16-4.84,.14-.27,.09-.5-.08-.76-.3-.46-.7-.81-1.12-1.14-1.17-.92-2.51-1.52-3.86-2.1-2.22-.95-4.52-1.65-6.83-2.31-.9-.26-1.79-.54-2.67-.86-.5-.18-.98-.42-1.47-.64-2.48-1.15-3.95-3.11-4.58-5.75-.03-.13-.05-.26-.05-.4-.04-.54,.02-1.07,.38-1.51,1.28-1.58,2.85-2.82,4.64-3.77,.95-.5,1.95-.83,3.03-1.01,2.13-.36,4.25-.49,6.39-.13,.92,.16,1.86,.25,2.79,.32,2.12,.15,2.26,.19,3.93,1.65,2.03,1.78,3.79,3.78,5.23,6.06,1.29,2.03,2.52,4.11,3.77,6.16,.28,.47,.44,.98,.45,1.52,.02,1.47,0,2.95,0,4.42h.03c0,1.21,0,2.41,0,3.62Z" fill="#333"/>
        <path d="M1384.69,200.51c-1.72-1.29-3.52-2.44-5.42-3.45-1.42-.75-2.83-1.52-4.23-2.31-2.45-1.38-4.84-2.87-7.04-4.63-1.16-.92-2.28-1.88-3.24-3-.44-.51-.78-1.1-.91-1.77-.45-2.45-.17-4.8,.93-7.04,.59-1.21,1.29-2.35,2.08-3.43,1.74-2.38,3.64-4.64,5.74-6.71,.76-.75,1.55-1.48,2.32-2.23,1.25-1.21,2.57-2.35,3.68-3.71,.42-1.85,.13-3.73,.2-5.6,.03-.68-.2-1.31-.45-1.94-.5-1.25-1.09-2.45-1.81-3.58-1.8-2.83-3.79-5.52-5.87-8.15-.15-.19-.42-.34-.66-.41-1.17-.36-2.34-.46-3.57-.27-1.76,.27-3.34,.97-4.84,1.85-.32,.19-.56,.57-.73,.92-.18,.35-.26,.76-.32,1.15-.45,3.05-1.04,6.07-1.66,9.09-.73,3.57-1.94,6.96-3.55,10.21-.17,.35-.45,.65-.69,.97-.18,.24-.43,.32-.72,.25-.39-.09-.81-.12-1.16-.29-3.76-1.77-6.69-4.4-8.5-8.19-.29-.6-.57-1.21-.86-1.82-1.61-3.43-2.41-7.09-3.01-10.8-.11-.66-.17-1.33-.25-1.99-.09-.72,.19-1.3,.68-1.8,.95-.95,1.89-1.9,2.84-2.85,.19-.19,.39-.36,.6-.54,.42-.35,.9-.58,1.46-.59,1.07-.02,2.14-.03,3.22-.03,6.03,0,12.06,.01,18.09,0,1.74,0,3.48-.09,5.22-.19,.66-.04,1.33-.15,1.98-.31,3.65-.92,7.14-2.26,10.44-4.09,.33-.18,.56-.59,.56-1.02,0-1.2-.02-2.41-.03-3.61,0-.29-.16-.49-.35-.7-.7-.83-1.56-1.47-2.44-2.08-2.01-1.37-4.14-2.43-6.57-2.85-1.45-.25-2.87-.64-4.35-.72-.54-.03-1.06-.15-1.54-.4-.36-.19-.7-.47-.73-.88-.16-1.73-.17-3.47,0-5.21,.03-.28,.18-.52,.41-.65,.47-.26,.92-.57,1.43-.71,2.06-.59,4.11-1.19,6.17-1.79,1.1-.32,1.86-1.02,2.4-2,1.1-2,2.01-4.07,2.75-6.24,.93-2.69,1.42-5.42,1.37-8.28-.04-2.02-.34-4-.73-5.97-.7-3.59-1.78-7.06-3.33-10.29-1.04-2.17-2.07-4.35-3.22-6.47-.67-1.23-.96-2.48-.9-3.85,.03-.53,0-1.07,0-1.61,0-.82,.17-1.55,.71-2.23,1.65-2.13,2.84-4.53,3.93-6.99,.99-2.23,1.42-4.6,1.63-7.01,.05-.53,.04-1.07,0-1.61-.29-3.35-.91-6.63-2.19-9.76-1.13-2.76-2.65-5.27-4.77-7.37-2.29-2.27-4.76-4.33-7.53-5.99-.34-.2-.72-.36-1.09-.5-.25-.09-.53-.19-.78-.16-.53,.06-1.06,.18-1.58,.31-1.43,.36-2.85,.73-4.27,1.09-1.3,.73-2.34,1.78-3.46,2.74-1.12,.96-2.24,1.92-3.32,2.92-2.67,2.47-4.96,5.26-6.93,8.32-1.4,2.16-2.41,4.48-2.68,7.07-.04,.4-.17,.79-.2,1.19-.05,.67-.13,1.34-.08,2.01,.13,1.88,.43,3.72,1.22,5.46,.5,1.09,.96,2.21,1.44,3.31,.32,.73,.67,1.46,1,2.19,.78,1.72,1.2,3.55,1.52,5.4,.26,1.49,.04,2.91-.81,4.23-.88,1.35-1.64,2.76-2.47,4.14-1.94,3.24-3.21,6.77-4.24,10.38-.4,1.41-.75,2.87-.9,4.32-.37,3.48-.34,6.95,.38,10.4,.31,1.47,.83,2.82,1.67,4.05,.53,.77,1.06,1.55,1.65,2.27,1.61,1.99,3.41,3.78,5.43,5.35,.63,.49,1.36,.88,1.83,1.55,.14,.2,.25,.55,.17,.74-.74,1.86-1.62,3.66-2.69,5.37-.15,.24-.43,.29-.71,.3-.7,.02-1.28-.37-1.91-.57-4.58-1.5-8.37-4.13-11.36-7.93-.08-.11-.18-.2-.24-.32-.25-.47-.54-.93-.55-1.49,0-.4-.02-.8-.03-1.21-.17-13.4-.34-26.81-.52-40.88-.32-12.47-.04-25.6,.38-38.74,.1-3.04,.09-2.6-1.36-4.85-.44-.67-.9-1.33-1.36-1.99-.31-.46-.76-.74-1.26-.95-.5-.2-.98-.46-1.5-.57-1.31-.27-2.63-.52-3.96-.66-.92-.1-1.87-.04-2.8,0-.24,0-.53,.14-.72,.31-1.54,1.3-2.93,2.74-4.28,4.23-.29,.33-.38,.71-.38,1.11,0,.8,.01,1.61,.07,2.41,.33,4.28,.41,8.57,.53,12.86,.07,2.55,.11,5.09,.28,7.63,.28,4.28,.4,8.57,.52,12.86,.07,2.55,.11,5.09,.28,7.63,.28,4.15,.39,8.3,.51,12.45,.07,2.55,.1,5.1,.27,7.64,.35,5.22,.45,10.45,.61,15.67,.11,3.53,.1,2.97-1.36,6.59-.7,1.74-1.72,3.33-2.87,4.82-.98,1.27-2.02,2.5-3.18,3.62-.31,.3-.67,.44-1.07,.49-.53,.06-1.07,.07-1.6,.07-3.22,.03-6.43,.15-9.64,.38-1.6,.11-3.21,.17-4.82,.23-4.02,.13-8.04,.26-12.05,.59-1.73,.14-3.48,.18-5.22,.22-2.95,.08-5.9,.12-8.84,.18-.67,.01-1.34,0-2.01,.06-.39,.03-.8,.12-1.15,.29-1.8,.88-3.59,1.79-5.37,2.72-.35,.18-.66,.48-.8,.87-.4,1.13-.8,2.27-1.17,3.42-.17,.51-.2,1.06-.08,1.59,.37,1.56,.72,3.13,1.16,4.68,.19,.67,.72,1.14,1.43,1.27,.66,.11,1.33,.21,1.99,.2,2.14-.03,4.29-.03,6.43-.18,2.29-.16,4.55,.02,6.81,.36,.52,.08,1.03,.28,1.54,.45,1.29,.45,1.4,.53,2.14,1.67,.8,1.24,1.6,2.48,2.38,3.73,.57,.91,1.07,1.86,1.41,2.88,.16,.51,.34,1.03,.38,1.55,.1,1.6,.14,3.21-.03,4.82-.03,.24-.17,.54-.36,.67-1.89,1.31-3.41,3.01-4.87,4.77-1.28,1.55-2.6,3.06-3.9,4.59-1.4,1.64-3.01,3.05-4.74,4.34-1.93,1.45-3.96,2.75-6.04,3.96-.81,.47-1.65,.89-2.46,1.37-1.38,.82-2.73,1.69-4,2.68-2.14,1.67-3.94,3.62-5.29,5.98-.42,.74-.55,1.51-.37,2.32,.29,1.31,.63,2.6,.93,3.91,.22,.95,.65,1.74,1.45,2.33,1.51,1.12,3,2.26,4.49,3.39,.11,.08,.22,.15,.34,.22,.47,.29,.95,.45,1.51,.28,2.7-.83,5.29-1.9,7.73-3.32,1.39-.81,2.77-1.62,4.11-2.51,2.9-1.93,5.77-3.9,8.64-5.86,1.66-1.14,3.31-2.28,4.93-3.47,.8-.59,1.66-.87,2.62-.87,1.88,0,3.73,.2,5.57,.67,2.99,.77,5.85,1.9,8.67,3.13,1.35,.59,2.68,1.22,4.04,1.78,2.48,1.01,5.03,1.82,7.66,2.35,1.33,.26,2.65,.38,3.99,.3,.56-.03,1.07-.26,1.34-.76,.88-1.65,1.72-3.33,2.55-5.01,.24-.48,.31-1.03,.19-1.57-.36-1.57-.72-3.13-1.11-4.69-.13-.53-.48-.95-.92-1.28-.1-.08-.23-.13-.35-.19-3.77-1.79-7.21-4.1-10.48-6.68-2-1.58-3.97-3.18-5.95-4.79-1.56-1.27-3.09-2.57-4.66-3.83-.43-.35-.78-.75-1.02-1.22-.67-1.32-1.18-2.7-1.26-4.2-.04-.67-.06-1.34-.07-2.01-.02-1.37,.31-2.66,.92-3.87,1.48-2.96,3.66-5.26,6.5-6.93,.57-.34,1.2-.63,1.83-.81,1.68-.46,3.35-.92,5.11-1.03,.97-.06,1.85,.11,2.64,.73,1.8,1.41,3.81,2.48,5.86,3.47,1.22,.59,2.28,1.38,3.23,2.35,3.49,3.58,6.38,7.58,8.47,12.13,.9,1.94,1.69,3.93,2.5,5.91,1.83,4.46,3.07,9.13,4.83,13.62,.26,.66,.13,1.32-.08,1.97-.08,.25-.2,.49-.32,.73-1.76,3.56-4.28,6.46-7.48,8.78-1.74,1.26-3.61,2.3-5.55,3.23-3.38,1.61-6.77,3.22-10.17,4.79-1.83,.85-3.6,1.77-5.29,2.86-1.24,.81-1.43,1.23-1.1,2.64,.33,1.43,.68,2.86,1.04,4.29,.13,.54,.47,.95,.89,1.3,1.15,.96,2.48,1.54,3.89,2.04,2.1,.74,4.21,.79,6.33,.28,1.82-.44,3.62-.98,5.33-1.74,1.22-.54,2.47-1.04,3.67-1.63,2.04-1,4.07-2.03,6.09-3.08,2.38-1.24,4.81-2.34,7.34-3.24,2.42-.86,4.88-1.43,7.46-1.36,.82,.02,1.59,.19,2.25,.71,1.78,1.41,3.61,2.78,5.36,4.23,2.99,2.48,6.1,4.81,9.28,7.05,1.64,1.16,3.35,2.23,5.13,3.15,1.78,.92,3.64,1.65,5.6,2.17,1.71,.45,3.42,.6,5.17,.56,.55-.01,1.06-.16,1.5-.49,1.61-1.2,3.21-2.41,4.81-3.62,.21-.16,.39-.36,.58-.55,.29-.3,.43-.67,.46-1.08,.03-.4,.02-.8,.02-1.21,0-3.15,.15-2.88-2.12-5.32-1-1.08-2.14-2.03-3.32-2.91Zm-28.58-155.68c.14-.54,.5-.95,1.05-1.11,.77-.23,1.55-.37,2.31-.65,1.65-.6,3.36-.89,5.12-.81,.67,.03,1.34,.01,2,.07,.4,.03,.78,.18,1.02,.54,1.16,1.8,1.97,3.79,2.93,5.7,.12,.23,.12,.52,.16,.78,.02,.13,.03,.27,.03,.4-.03,4.46,.44,3.14-2.15,7.02-.3,.44-.65,.84-.98,1.27-.17,.23-.4,.37-.68,.39-.93,.06-1.87,.11-2.04,.12-4.1,0-3.7,.18-6.03-2.14-.76-.76-1.51-1.52-2.25-2.29-.68-.7-1.01-1.56-1.08-2.53,0-.13-.03-.27-.04-.4-.1-2.15,.09-4.28,.61-6.37Zm-4.05,40.4c1.3-1.36,2.68-2.62,4.18-3.75,.86-.65,1.8-1.17,2.79-1.56,.75-.29,1.59-.39,2.37-.17,1.28,.37,2.54,.81,3.8,1.25,.51,.18,.93,.53,1.28,.94,1.79,2.06,2.98,4.43,3.66,7.05,.2,.78,.36,1.56,.5,2.35,.09,.55-.03,1.1-.47,1.46-1.85,1.54-3.77,2.99-5.79,4.3-.21,.14-.5,.21-.75,.22-.94,.03-1.87,0-2.81,0,0,.02,0,.05,0,.07-.94-.03-1.87-.05-2.8-.11-.25-.02-.52-.13-.73-.28-2.25-1.56-3.91-3.61-5.02-6.12-.55-1.25-.85-2.53-.91-3.88-.03-.69,.19-1.28,.69-1.8Z" fill="#333"/>
        <path d="M1139.44,153.24c-.08-1.34-.15-2.67-.22-4.01-.47-1.4-1.27-2.65-1.88-3.99-.33-.73-.71-1.44-1.03-2.17-.1-.23-.12-.53-.1-.79,.04-.53,.1-1.07,.21-1.59,.6-2.82,.41-5.6-.44-8.34-.75-2.45-1.76-4.78-3.31-6.84-.89-1.18-1.83-2.31-2.79-3.43-1.76-2.03-1.78-2.06-4.31-2.66-3-.71-6.01-1.34-9.06-1.78-2.78-.4-5.54-.99-8.36-1.1-.4-.02-.8-.08-1.2-.15-1.72-.33-3.46-.41-5.2-.51-2.01-.12-4.01-.27-6.02-.4-1.07-.07-2.14-.15-3.21-.18-6.03-.17-12.06-.21-18.09,.1-5.22,.27-10.44,.42-15.67,.56-2.54,.07-5.09,.21-7.63,.33-2.54,.12-5.08,.29-7.63,.36-6.97,.2-13.93,.41-20.9,.19-.81-.03-1.58,.08-2.35,.41-.86,.37-1.74,.74-2.65,.92-1.7,.34-3.43,.66-5.16,.79-2.94,.23-5.88,.41-8.8,.81-.4,.06-.8,.08-1.2,.09-1.75,.03-3.45,.38-5.15,.81-1.83,.46-3.57,1.15-5.18,2.13-3.15,1.9-5.7,4.43-7.67,7.54-.36,.57-.61,1.2-.78,1.84-.17,.65-.28,1.31-.4,1.97-.37,2.11-.71,4.23-1.08,6.34-.58,3.3-1.14,6.6-1.43,9.94-.05,.53-.08,1.07-.18,1.6-.39,1.98-.49,3.99-.62,5.99-.07,1.07-.2,2.13-.29,3.2-.13,1.6-.28,3.2-.37,4.81-.09,1.74-.12,3.48-.17,5.02-.05,2.48-.07,4.76-.14,7.04-.04,1.35,.14,2.67,.47,3.98,.13,.52,.32,1.03,.41,1.55,.34,1.86,1.1,3.58,1.88,5.29,.73,1.6,1.75,3.01,3,4.24,1.05,1.04,2.18,1.98,3.45,2.75,.22,.14,.48,.24,.73,.29,.39,.07,.8,.09,1.2,.09,5.49,0,10.99,0,16.48,0,.27,0,.54-.03,.8-.03,.42,0,.78-.19,1.12-.4,.45-.29,.89-.6,1.32-.92,1.18-.88,2.4-1.72,3.53-2.65,.8-.66,1.64-.89,2.61-.59,1.03,.31,2.05,.6,3.11,.79,.39,.07,.76,.25,1.14,.37,.54,.17,.96,.52,1.21,1,.87,1.66,1.71,3.33,2.53,5.02,.17,.35,.22,.78,.23,1.17,0,.67,0,1.35-.12,2-.63,3.84-.62,7.75-1.25,11.59-.09,.53-.1,1.07-.11,1.6,0,.4,0,.82,.12,1.19,.56,1.65,.67,3.42,1.39,5.03,.12,.28,.59,.63,.91,.65,3.1,.17,6.16-.07,9.13-1.02,.79-.25,1.45-.72,1.79-1.5,.74-1.72,1.35-3.49,1.9-5.29,.94-3.07,2.03-6.09,3.22-9.08,.64-1.62,1.39-3.19,2.3-4.68,1.8-2.91,4.15-5.23,7.13-6.92,.61-.34,1.22-.55,1.9-.55,5.49,0,10.99,0,16.48,0,.55,0,1.06,.16,1.51,.47,.44,.3,.89,.6,1.31,.93,2.46,1.9,4.54,4.16,6.29,6.72,.99,1.44,1.84,2.95,2.66,4.49,1.25,2.37,2.55,4.71,3.86,7.05,.98,1.75,2.08,3.44,3.37,4.99,.52,.63,1.1,1.12,1.92,1.38,1.66,.53,3.38,.83,5.06,1.25,.37,.09,.78-.07,1.09-.38,1.23-1.23,2.49-2.43,3.68-3.7,.36-.39,.43-.97,.2-1.51-.15-.37-.28-.75-.44-1.12-1.39-3.24-2.11-6.63-2.21-10.15-.04-1.34,0-2.68-.08-4.02-.09-1.39,.56-2.23,1.7-2.91,2.1-1.25,4.33-2.14,6.72-2.54,3.3-.56,6.63-.97,9.99-.87,1.74,.05,3.48-.02,5.23,.02,2.17,.04,4.24-.53,6.34-.95,3.63-1.18,6.86-3,9.39-5.93,.71-.82,1.29-1.73,1.61-2.76,.96-3.07,1.79-6.18,1.92-9.42,.06-1.47,.18-2.95,.15-4.42-.11-4.96-.09-9.92-.73-14.85-.07-.53-.1-1.07-.13-1.6Zm-11.66-9.71c-.89,3.39-1.34,6.83-1.27,10.33,.05,2.55,.14,5.09,.23,7.64,.09,2.68,.04,5.36-.27,8.03-.07,.56-.35,.99-.74,1.37-1.05,1.04-2.22,1.93-3.38,2.84-1.27,.99-2.55,1.95-3.79,2.98-2.56,2.12-1.72,1.71-5.05,1.76-5.49,.09-10.99,.12-16.48,.23-3.88,.08-7.77,.26-11.65,.38s-7.77,.24-11.65,.35c-4.96,.15-9.91,.3-14.87,.43-3.48,.09-6.97,.15-10.45,.2-1.61,.03-3.21,.04-4.79-.37-.76-.2-1.59-.19-2.4-.21-2.68-.06-5.36-.05-8.01,.43-.39,.07-.8,.12-1.2,.16-3.48,.27-6.9,.91-10.34,1.46-2.79,.45-5.6,.52-8.42,.51-1.61,0-3.22-.08-4.81-.25-2.13-.23-4.22-.7-6.2-1.59-.39-.17-.67-.46-.86-.81-.93-1.77-1.94-3.51-2.61-5.41-.1-.27,.06-.53,.28-.69,1.22-.86,2.61-1.35,4.03-1.74,1.31-.36,2.68-.41,3.98-.02,1.18,.36,2.37,.42,3.57,.41,.4,0,.8,0,1.21,0,26.66,0,53.33,0,79.99,0,2.55,0,5.09-.05,7.61-.49,3.22-.56,6.15-1.82,8.7-3.88,1.04-.84,2.01-1.78,2.85-2.83,.24-.29,.3-.73,.44-1.1-.3-.44-.59-.9-1.12-1.1-.25-.09-.5-.19-.76-.25-3.53-.79-7.09-1.43-10.66-1.98-.66-.1-1.33-.14-2-.19-.93-.08-1.88-.1-2.8-.23-3.46-.47-6.94-.54-10.43-.55-6.16-.02-12.33,0-18.49-.02-2.41,0-4.82-.03-7.23-.09-1.34-.03-2.68-.1-4.01-.26-2.27-.28-4.54-.38-6.82-.41-2.01-.03-4.02-.04-6.03-.04-5.09,0-10.18,0-15.27-.01-3.48-.02-6.96-.14-10.42-.58-2.39-.31-4.78-.63-7.15-1.03-1.46-.24-2.86-.64-4.26-1.09-.29-.09-.44-.32-.39-.63,.24-1.31,.54-2.61,1.26-3.76,.21-.33,.53-.6,.97-.63,1.2-.07,2.4-.17,3.61-.2,3.08-.06,6.16-.14,9.24-.13,9.38,.02,18.76,.05,28.14,.12,3.21,.02,6.43,.13,9.64,.21,0,.02,0,.04,0,.06,2.81,.08,5.62,.18,8.44,.23,10.85,.2,21.7,.23,32.56,.12,2.81-.03,5.63-.13,8.44-.21,.67-.02,1.33-.11,2-.19,.41-.05,.76-.28,1.01-.6,1-1.26,1.88-2.6,2.67-4,.18-.31,.11-.82-.15-1.12-.09-.1-.15-.23-.25-.31-1.42-1.23-2.94-2.32-4.65-3.12-2.19-1.02-4.47-1.77-6.79-2.42-2.86-.8-5.8-1.02-8.73-1.29-2.14-.2-4.28-.12-6.42,.05-2.14,.17-4.28,.3-6.42,.44-.94,.06-1.88,.05-2.81,.18-3.86,.53-7.75,.6-11.62,.95-2.14,.19-4.28,.17-6.42-.05-1.6-.16-3.21-.25-4.81-.29-2.95-.07-5.89-.1-8.84-.09-4.69,.02-9.38,.1-14.07,.12-4.02,.02-8.04,0-12.06-.04-2.68-.03-5.35-.16-8.01-.55-1.46-.21-2.93-.28-4.4-.45-.39-.05-.76-.23-1.14-.35-.29-.09-.46-.27-.52-.57-.28-1.32-.22-2.65-.04-3.98,.03-.24,.19-.5,.37-.69,1.38-1.5,3.01-2.66,4.86-3.49,1.23-.55,2.53-.88,3.87-.99,.26-.02,.53,.04,.79,.09,.13,.02,.25,.09,.37,.16,1.53,.88,3.19,1.27,4.95,1.47,1.86,.21,3.72,.43,5.6,.54,1.07,.06,2.14,.1,3.21,.24,2.8,.37,5.61,.47,8.42,.57,1.74,.06,3.48,.11,5.22,.22,4.95,.31,9.91,.39,14.86,.4,10.18,.02,20.36,0,30.54-.31,4.02-.12,8.04-.13,12.06-.17,1.35-.01,2.69-.07,3.97-.5,1.16-.38,2.36-.48,3.56-.6,2.72-.27,5.34,.16,7.86,1.2,2.74,1.13,5.28,2.6,7.51,4.58,2.1,1.88,4.1,3.85,5.93,6,.36,.42,.59,.89,.43,1.47Z" fill="#333"/>
        <path d="M931.93,199.18c-.32-.42-.68-.83-1.05-1.21-1.7-1.72-3.54-3.27-5.49-4.7-2.81-2.06-5.71-3.99-8.66-5.83-1.93-1.21-3.85-2.43-5.7-3.76-4.37-3.13-8.43-6.61-11.91-10.74-.78-.93-1.65-1.75-2.51-2.6-3.91-3.86-7.83-7.71-11.71-11.6-7.14-7.14-13.22-15.11-18.58-23.66-1.5-2.38-2.88-4.83-4.14-7.35-1.68-3.36-3.07-6.84-3.98-10.49-.29-1.17-.61-2.33-.82-3.52-.5-2.76-1.14-5.52-1.15-8.35,0-1.08-.19-2.13-.45-3.17-.32-1.32-.25-2.66,0-3.99,.12-.66,.31-1.3,.43-1.96,.23-1.21,.8-2.26,1.42-3.3,.77-1.28,1.78-2.35,2.92-3.29,2.71-2.26,5.83-3.79,9.14-4.92,1.13-.39,2.33-.67,3.52-.81,2.27-.26,4.55-.23,6.82,.02,1.58,.62,3.15,.35,4.75,.05,.65-.12,1.33-.12,2-.14,2.01-.05,4.02,.03,6.02,.24,4.81,.49,9.63,.5,14.45,.47,2.3-.02,4.54-.47,6.71-1.14,4.14-1.28,7.84-3.42,11.07-6.33,.1-.09,.17-.21,.21-.34,.08-.25,.26-.56,.19-.76-.64-1.62-1.32-3.22-1.99-4.82-.39-.94-1.16-1.44-2.09-1.73-.13-.04-.26-.06-.39-.09-1.97-.37-3.9-.98-5.92-1.07-2.5-.55-5.05-.62-7.59-.75-4.02-.2-8.04-.23-12.06-.06-2.41,.1-4.82,.17-7.23,.26,0,0,0,0,0,0-2.41,.1-4.82,.21-7.23,.28-1.87,.06-3.75,.14-5.63,.07-4.82-.17-9.65-.18-14.4-1.19-1.23-.05-2.37-.49-3.48-.91-2.01-.76-3.93-1.71-5.58-3.13-1.84-1.59-3.37-3.44-4.6-5.54-1.05-1.78-1.57-3.68-1.43-5.76,.05-.67,.09-1.34,.34-1.97,.25-.63,.39-1.28,.47-1.95,.15-1.33,.32-2.66,.49-3.99,.52-4.04,.17-8.02-.78-11.96-.19-.78-.4-1.56-.66-2.32-.56-1.65-1.21-3.26-2.23-4.7-1.02-1.46-2.3-2.61-3.87-3.44-1.67-.88-3.47-1.42-5.34-1.67-.52-.07-1.07-.02-1.6,0-.42,0-.79,.18-1.11,.42-1.81,1.4-3.45,3-4.75,4.88-1.82,2.63-2.62,5.55-2.11,8.76,.21,1.32,.57,2.62,.72,3.95,.15,1.33,.13,2.67,.19,4.01,.02,.4,.06,.8,.1,1.2,.07,.67,.2,1.32,.42,1.96,.27,.76,.5,1.53,.75,2.29-.18,.92-.31,1.84-.55,2.75-.37,1.42-.81,2.83-1.24,4.24-1.19,3.94-3.36,7.26-6.26,10.15-2.15,2.13-4.7,3.53-7.61,4.26-1.82,.46-3.63,.9-5.53,.93-1.5,.02-2.89,.48-4.18,1.27-1.37,.83-2.83,1.5-4.32,2.12-1.37,.57-2.77,1.05-4.23,1.21-4.19,.47-8.29,.01-12.22-1.6-1.85-.76-3.64-1.68-5.54-2.34-2-.15-4-.32-6.01-.46-1.34-.09-2.67-.2-4.01-.23-3.08-.06-6.16,0-9.22,.5-1.71,.28-3.48,.29-5.13,.9-4.74,1.1-8.57,3.65-11.74,7.29-.26,.3-.54,.62-.7,.97-.16,.35-.32,.81-.22,1.15,.31,1.16,.73,2.29,1.13,3.43,.22,.64,.6,1.19,1.08,1.67,1.14,1.13,2.28,2.27,3.42,3.4,.39,.38,.85,.65,1.4,.71,3.6,.33,7.18,.86,10.8,1.05,2.14,.11,4.28,.23,6.43,.07,3.07-.24,6.17-.2,9.18-.97,3.61-.52,7-1.76,10.24-3.39,2.15-1.08,4.25-2.26,6.21-3.68,.43-.31,.88-.61,1.34-.88,.22-.13,.5-.22,.76-.23,1.61-.09,3.21,.04,4.79,.35,.79,.16,1.57,.34,2.37,.44,1.61,.2,3.13,.74,4.63,1.28,3.29,1.2,6.32,2.9,9.15,4.96,1.09,.79,2.1,1.67,3.03,2.63,1.61,1.65,2.84,3.54,3.64,5.71,.99,2.68,1.53,5.4,1.18,8.27-.18,1.46-.34,2.93-.54,4.39-.07,.53-.18,1.06-.31,1.58-.45,1.82-1,3.61-1.66,5.36-1.1,2.88-2.33,5.7-3.73,8.44-2.2,4.29-4.42,8.56-7.07,12.6-.51,.78-1,1.58-1.48,2.39-4.81,8.08-10.43,15.58-16.38,22.84-6.67,8.13-14.34,15.18-22.93,21.24-1.54,1.09-3.15,2.04-4.85,2.83-1.33,.63-2.7,1.16-4.06,1.74-4.31,1.83-8.61,3.66-12.93,5.48-1.73,.73-3.41,1.56-5.02,2.51-1.15,.68-2.26,1.43-3.31,2.27-2.79,2.24-4.73,5.07-5.88,8.46-.31,.9-.44,1.82-.46,2.76-.02,.69,.19,1.29,.7,1.8,1.64,1.64,3.58,2.81,5.71,3.65,2.54,1.01,5.15,1.33,7.87,.69,1.83-.43,3.62-.92,5.37-1.62,3.99-1.59,7.8-3.51,11.4-5.87,2.35-1.54,4.72-3.06,7.13-4.5,1.51-.9,2.89-1.92,4.12-3.17,1.03-1.05,2.14-2.03,3.19-3.06,3.44-3.38,6.89-6.75,10.31-10.16,2.18-2.18,4.24-4.47,6.21-6.84,1.55-1.85,2.93-3.83,4.42-5.72,1.58-2,3.32-3.87,4.88-5.87,4.63-5.92,8.71-12.21,12.25-18.84,1.77-3.31,3.41-6.68,4.99-10.07,3.11-6.67,6.27-13.32,9.4-19.98,1.77-3.76,3.73-7.41,5.84-10.99,.34-.58,.7-1.14,1.1-1.68,.24-.32,.62-.49,1.04-.5,1.74-.06,3.48-.11,5.22,.04,.28,.02,.5,.15,.68,.38,.33,.42,.69,.82,1,1.25,2.49,3.49,4.83,7.08,7.1,10.71,4.48,7.15,8.68,14.47,12.78,21.84,2.41,4.33,4.82,8.65,7.3,12.94,3.96,6.84,8.02,13.62,12.53,20.11,2.45,3.52,4.82,7.09,7.07,10.73,3.25,5.26,7.01,10.13,11.01,14.83,2.18,2.55,4.47,4.99,6.96,7.24,4.22,3.8,8.91,6.84,14.23,8.87,.64,.24,1.28,.4,1.95,.42,.67,.02,1.34-.01,2.01-.04,.54-.03,1.04-.2,1.53-.43,1.25-.58,2.21-1.5,3.04-2.57,3.03-3.89,4.18-8.32,3.72-13.2-.04-.42-.26-.76-.5-1.08Z" fill="#333"/>
        <path d="M1255.89,150.37c1-1.26,1.91-2.58,2.64-4.02,.13-.26,.15-.5,.04-.77-.19-.5-.31-1.03-.52-1.52-1.64-3.86-1.32-3.53-4.2-6.23-3.52-3.3-6.94-6.71-10.26-10.21-4.49-4.71-7.87-10.13-10.3-16.17-.95-2.38-1.63-4.82-2.04-7.34-.48-2.97-.2-5.9,.92-8.69,1.87-4.66,4.56-8.78,8.39-12.11,.33-.29,.7-.4,1.1-.42,.8-.05,1.61-.03,2.41-.06,2.57-.08,5.05-.62,7.43-1.58,1.11-.45,2.2-1,3.22-1.62,2.85-1.72,2.58-1.51,2.6-4.38,0-.94,0-1.88-.02-2.81-.01-.72-.36-1.27-.89-1.72-.31-.26-.62-.52-.94-.76-1.84-1.37-3.93-2.29-6.07-3.07-1.76-.64-3.57-1.13-5.38-1.62-3.27-.89-6.22-2.41-8.85-4.56-1.51-1.23-2.63-2.64-2.81-4.67-.07-.79-.38-1.57-.47-2.36-.37-3.08-.34-6.17,.11-9.22,.45-3.05,.97-6.09,1.73-9.07,.27-1.04,.44-2.1,.61-3.15,.14-.85-.01-1.59-.65-2.2-1.07-1.02-2.11-2.06-3.2-3.05-1.29-1.17-2.61-2.31-4.1-3.22-.34-.21-.73-.34-1.08-.52-.27-.14-.5-.13-.77,0-2.53,1.25-4.88,2.78-7.23,4.31-.21,.14-.43,.37-.5,.6-.58,1.92-1.1,3.86-1.45,5.84-.04,.25,0,.53,.06,.78,.19,.92,.37,1.84,.6,2.75,1.17,4.67,2.38,9.34,3.54,14.02,.57,2.32,.38,2.26-.71,4.15-.4,.7-.85,1.37-1.25,2.06-.74,1.27-1.43,2.57-2.35,3.73-1.28,.76-2.75,1-4.13,1.47-1.9,.64-3.79,1.33-5.7,1.93-1.78,.57-3.56,1.16-5.43,1.41-.79,.11-1.58,.28-2.36,.47-.38,.1-.77,.27-1.08,.5-1.72,1.28-3.42,2.58-5.11,3.9-.31,.25-.49,.64-.49,1.06,0,1.2-.02,2.41,0,3.61,0,.25,.1,.53,.24,.75,.56,.91,1.14,1.82,1.72,2.71,.51,.78,.96,1.6,1.77,2.16,.9,.62,1.95,.88,2.94,1.28,.36,.15,.78,.17,1.18,.22,1.6,.21,3.21,.22,4.82,.14,1.34-.07,2.68-.14,4.01-.22,.99-.06,1.82,.29,2.61,.85,2,1.4,3.63,3.14,4.98,5.18,1.7,2.58,3.07,5.33,4.52,8.05,.32,.59,.49,1.25,.53,1.93,.04,.53,.08,1.08,.04,1.61-.16,1.87-.43,3.73-.91,5.54-.9,3.39-2.31,6.55-4.21,9.51-1.74,2.72-3.7,5.26-5.82,7.68-4.77,5.45-9.78,10.67-15.24,15.45-1.82,1.59-3.61,3.21-5.39,4.83-.99,.9-1.93,1.86-2.92,2.76-.94,.84-1.58,1.76-1.43,3.12,.09,.79,0,1.61,.03,2.41,.01,.4,.03,.82,.16,1.19,.47,1.25,.7,2.59,1.37,3.77,.2,.36,.51,.61,.92,.71,.26,.06,.53,.11,.79,.13,3.78,.29,7.5-.19,11.16-1.04,3.39-.79,6.77-1.59,10.1-2.61,1.15-.35,2.32-.65,3.5-.9,.78-.17,1.58-.36,2.38-.23,.25,.04,.58,.14,.71,.32,.85,1.2,1.68,2.42,2.46,3.66,.2,.32,.3,.75,.33,1.14,.06,.94,.06,1.87,.06,2.81,0,7.37,0,14.75,0,22.12v3.22c0,6.57,0,13.14,0,19.71,0,1.21,.02,2.4,.25,3.6,.52,2.66,1.5,5.13,2.91,7.44,.12,.19,.43,.37,.66,.37,1.74,.04,3.48,.05,5.22,.04,.39,0,.8-.12,1.05-.48,.61-.88,1.18-1.79,1.82-2.65,.74-1.01,1.07-2.1,1.09-3.37,.12-5.76,.28-11.52,.46-17.29,.06-2.01,.19-4.02,.31-6.02,.14-2.27,.34-4.54,.44-6.82,.21-4.82,.83-9.61,1.07-14.43,0-.13,.02-.27,.04-.4,.3-1.86,.41-3.73,.52-5.6,.31-4.98,.09-3.92,2.88-8.11,.15-.22,.31-.44,.47-.65,.08-.1,.18-.2,.29-.28,.32-.24,.64-.48,1.06-.52,2.55-.24,5.08-.14,7.61,.3,2.66,.47,5.33,.5,8.01,.2,.55-.06,1.04-.31,1.38-.74Z" fill="#333"/>
        <path d="M1488.44,147.11c.06-.26,.09-.53,.09-.8,.04-1.61-.12-3.21-.32-4.81-.14-1.07-.58-2.06-1.01-3.04-.1-.23-.3-.45-.51-.61-.42-.33-.85-.65-1.31-.93-3.66-2.27-6.94-5.02-10.1-7.92-3.59-3.3-6.45-7.14-8.72-11.45-1.95-3.69-3.43-7.56-4.49-11.58-1.04-3.92-1.38-7.91-.81-11.95,.19-1.33,.31-2.66,.54-3.98,.35-1.98,.76-3.94,1.47-5.83,1.36-3.65,3.91-6,7.69-6.98,1.16-.3,2.33-.57,3.52-.8,2.5-.48,4.92-1.26,7.23-2.35,1.84-.86,3.48-1.99,4.73-3.62,.25-.33,.33-.73,.31-1.13-.01-.26-.06-.54-.14-.79-.99-2.92-2.82-5.13-5.54-6.59-2.01-1.08-4.06-2.04-6.32-2.48-.92-.18-1.81-.49-2.73-.65-.94-.16-1.81-.51-2.67-.87-3.55-1.5-5.86-4.1-6.89-7.84-.43-1.56-.68-3.14-.68-4.75,0-1.88,.05-3.75,.35-5.61,.63-3.88,.47-7.75-.4-11.58-.86-3.78-2.68-6.97-5.82-9.34-.11-.08-.23-.13-.35-.2-.6-.35-1.2-.49-1.9-.21-1.13,.46-2.16,1.08-3.13,1.79-2.08,1.53-3.76,3.42-4.96,5.71-.91,1.74-1.1,3.6-.49,5.45,.63,1.91,1.18,3.83,1.52,5.82,.2,1.18,.47,2.38,.91,3.49,.46,1.16,.55,2.33,.67,3.53,.14,1.47,.19,2.94-.01,4.41-.38,2.74-1.48,5.12-3.44,7.09-1.14,1.15-2.42,2.13-3.82,2.91-4.12,2.3-8.43,4.06-13.23,4.31-1.6,.08-3.2,.33-4.79,.54-.53,.07-.99,.34-1.3,.83-.72,1.13-1.49,2.22-2.2,3.36-.29,.47-.3,1.02-.15,1.56,.62,2.12,1.78,3.88,3.52,5.24,1.06,.83,2.22,1.49,3.47,1.98,1.69,.66,4.13,1.32,6.62,1.58,1.61,.17,3.16,.6,4.7,1.02,1.67,.46,3.27,1.16,4.78,2.06,2.23,1.34,4.03,3.07,5.24,5.4,.32,.61,.51,1.23,.54,1.91,.11,2.54,.25,5.08,.36,7.63,.05,1.07,.08,2.14,.09,3.21,.02,2.55-.19,5.1-.63,7.6-.59,3.31-1.73,6.46-3.34,9.42-2.06,3.78-4.52,7.28-7.59,10.32-1.43,1.41-2.89,2.79-4.4,4.12-3.93,3.45-8.05,6.64-12.43,9.51-1.79,1.17-3.53,2.43-5.28,3.65-.57,.4-.93,.97-1.13,1.62-1.13,3.77-1.37,7.63-1.09,11.53,.02,.25,.15,.52,.32,.71,1.89,2.11,4.24,3.2,7.08,3.24,1.22,.02,2.38-.21,3.52-.67,1-.4,1.98-.83,2.87-1.42,1.11-.74,2.19-1.53,3.27-2.33,2.48-1.83,4.94-3.68,7.43-5.49,.97-.71,1.98-1.38,3.02-1.97,1.16-.66,2.42-1.13,3.75-1.35,.59-.1,1.12,.08,1.49,.44,1.35,1.3,2.63,2.67,3.94,4,.2,.2,.31,.43,.31,.71,.02,1.34,.07,2.68,.07,4.01,0,15.94,0,31.89,0,47.83,0,1.61,0,3.21,.48,4.77,.19,.63,.22,1.32,.26,1.99,.09,1.48,.41,2.91,.71,4.36,.45,2.16,1.45,4.02,2.88,5.66,.26,.3,.64,.52,1.05,.53,.53,.01,1.09,.02,1.59-.11,2.13-.57,3.95-1.61,5.24-3.47,.39-.56,.68-1.14,.72-1.83,.27-3.88,.35-7.76,.24-11.65-.15-5.49-.29-10.98-.44-16.47,.01,0,.02,0,.04,0-.1-3.08-.2-6.16-.32-9.24-.11-3.08-.11-6.16,.03-9.24,.1-2.28,.23-4.55,.29-6.83,.09-3.36,.71-6.66,1.06-9.99,.13-1.19,.47-2.36,.75-3.53,.06-.24,.26-.51,.48-.62,.83-.44,1.69-.83,2.64-.92,2.14-.19,4.28-.16,6.4,.31,1.18,.26,2.38,.43,3.53,.76,2.11,.59,4.24,.62,6.38,.39,1.47-.16,2.86-.65,4.1-1.51,.36-.25,.51-.6,.61-.99Z" fill="#333"/>
        <path d="M1159.43,67.52c-1.61-4.67-4.19-8.65-7.96-11.85-1.53-1.3-3.12-2.53-4.83-3.6-1.83-1.14-3.76-2.09-5.86-2.55-2.48-.53-4.97-1.05-7.55-.81-1.33,.12-2.68,.1-4.01,.1-12.73,0-25.45,0-38.18,.01-2.95,0-5.89-.14-8.83-.32-2.29-.14-4.51-.54-6.73-1.07-.55-.13-.96-.46-1.33-.85-.18-.19-.35-.4-.51-.62-2.57-3.65-4.46-7.59-5.3-12.02-.62-3.3-1.03-6.61-1.33-9.95-.09-1.07-.11-2.14-.19-3.21-.04-.53-.13-1.06-.2-1.59-.09-.66-.71-1.24-1.35-1.24-3.08,0-6.16,0-9.24,0-.13,0-.26,.05-.4,.06-.29,0-.49,.15-.67,.38-1.02,1.25-1.86,2.61-2.7,3.98-.29,.47-.42,.97-.42,1.52,0,2.81,0,5.63,0,8.44h-.01c0,2.68,0,5.36,0,8.04,0,.53-.07,1.07-.1,1.6-.02,.29-.14,.51-.34,.71-.77,.74-1.52,1.51-2.31,2.23-2.49,2.28-5.34,4.02-8.4,5.42-1.34,.61-2.72,1.12-4.17,1.43-.66,.14-1.31,.23-1.99,.15-2.13-.26-4.28-.29-6.42-.17-5.35,.29-10.7,.57-16.04,1.01-4.68,.39-9.36,.48-14.05,.22-2.27-.13-4.53-.48-6.79-.73-.26-.03-.53-.09-.78-.18-2.6-.89-5.25-.88-7.94-.6-3.27,.35-6.24,1.45-8.93,3.32-1.33,.92-2.54,1.97-3.67,3.12-3.59,3.66-6.51,7.81-8.7,12.46-.86,1.82-1.52,3.71-2,5.67-.68,2.74-.98,5.53-1.33,8.32-.07,.53-.08,1.07-.07,1.6,.03,2.95,.08,5.89,.12,8.84,0,.58,.24,1.08,.66,1.4,1.79,1.4,3.54,2.86,5.47,4.07,.25,.16,.51,.19,.76,.08,1.84-.79,3.63-1.71,5.39-2.67,.12-.06,.23-.14,.33-.23,.19-.18,.43-.35,.54-.58,.39-.85,.76-1.7,1.04-2.6,.64-2.05,1.01-4.16,1.52-6.24,.54-2.21,.94-4.45,1.51-6.65,1-3.84,2.85-7.19,5.55-10.1,.84-.91,1.8-1.59,3.01-1.9,2.73-.72,5.29-1.88,7.79-3.16,1.67-.85,3.33-1.72,4.99-2.59,.83-.43,1.64-.91,2.47-1.33,.35-.18,.75-.33,1.14-.37,2.15-.2,4.29-.19,6.31,.71,1.5,.67,3.06,.91,4.69,.91,2.14,0,4.29,.09,6.43,.1,7.23,.03,14.47,.09,21.7,.07,10.72-.03,21.43-.12,32.14-.41,5.89-.16,11.78-.28,17.68-.33,6.03-.06,12.06,0,18.08-.03,5.9-.04,11.78,.4,17.67,.46,2.59,.03,5.01,.73,7.34,1.83,1.22,.58,2.32,1.32,3.33,2.22,1.11,.98,2.11,2.06,2.95,3.28,.83,1.22,1.65,2.45,2.34,3.75,2.44,4.63,4.43,9.44,5.77,14.52,.55,2.07,1.16,4.12,1.78,6.17,.19,.64,.48,1.25,.77,1.85,.11,.22,.33,.42,.55,.56,1.01,.66,2.12,1.14,3.19,1.67,3.06,1.54,2.54,1.67,4.72-1.19,.65-.85,1.23-1.76,1.92-2.57,.72-.85,1.14-1.84,1.29-2.9,.4-2.78,.86-5.55,.95-8.38,.11-3.64-.36-7.22-.86-10.8-.54-1.93-.71-3.94-1.37-5.86Z" fill="#333"/>
        <path d="M999.53,106.44c1.08,.54,2.2,1.03,3.37,1.27,2.09,.44,4.22,.77,6.38,.66,2.94-.16,5.88-.34,8.79-.87,1.32-.24,2.65-.36,3.99-.42,2.27-.09,4.55-.14,6.82-.33,3.34-.29,6.68-.43,10.03-.52,2.54-.07,5.09-.12,7.63-.25,6.55-.33,13.11-.41,19.68-.5,8.03,0,16.07,0,24.1,0,1.07,0,2.15,.05,3.21-.02,2.81-.18,5.62-.07,8.43,.07,3.21,.16,6.43,.1,9.64-.1,3.26-.2,6.32-1.13,9.11-2.81,2.54-1.53,4.76-3.46,6.57-5.84,.16-.21,.32-.44,.42-.68,.1-.24,.2-.51,.19-.77-.08-1.47-.55-2.88-.58-4.37-.02-1.47-.11-2.95-.24-4.41-.11-1.2-.34-2.38-.47-3.58-.15-1.35-.64-2.59-1.15-3.83-.26-.63-.7-1.15-1.27-1.52-1.57-1.02-3.16-2.01-4.75-3-1.38-.86-2.87-1.33-4.51-1.54-2.53-.33-5.06-.53-7.61-.47-2.94,.07-5.89,.07-8.83,.27-4.44,.3-8.83-.14-13.23-.51-.4-.03-.8-.09-1.18-.21-2.08-.65-4.22-.65-6.36-.65-8.7,.01-17.41,.02-26.11,0-2.82,0-5.62,.08-8.42,.37-2.54,.27-5.08,.35-7.62,.21-2.41-.13-4.82-.08-7.23,.05-1.6,.09-3.21,.19-4.81,.23-2.95,.07-5.88,.35-8.78,.88-3.31,.61-6.5,1.55-9.48,3.12-4.07,2.14-7.65,4.9-10.65,8.4-.53,.62-.94,1.28-1.05,2.12-.58,4.24-1.03,8.5-1.43,12.77-.06,.69,.2,1.27,.69,1.8,1.95,2.07,4.22,3.69,6.75,4.96Zm9.67-17.23c.64-.18,1.28-.41,1.94-.49,1.86-.23,3.73-.4,5.57-.75,.13-.03,.27-.04,.4-.05,4.68-.25,9.34-.86,14.03-.91,3.35-.03,6.7-.11,10.04-.17,2.81-.06,5.62-.15,8.43-.42,1.07-.1,2.14-.12,3.21-.22,1.61-.14,3.21-.08,4.81,.17,3.47,.54,6.94,.48,10.42,.15,1.07-.1,2.13-.22,3.2-.29,1.74-.13,3.46-.35,5.18-.61,3.71-.55,7.4-1.21,11.11-1.68,4.38-.55,8.76-1.18,13.19-1.21,1.74-.01,3.48-.07,5.22,.06,.7,.05,1.29,.31,1.78,.81,1.13,1.15,2.26,2.29,3.38,3.44,.33,.34,.34,1.05,.03,1.48-1.24,1.74-2.51,3.47-3.89,5.11-.18,.22-.38,.39-.66,.43-1.46,.2-2.89,.51-4.31,.92-.9,.26-1.8,.58-2.72,.68-1.19,.14-2.41,.11-3.61,.11-12.72,0-25.45,0-38.17,0h0c-4.15,0-8.3,0-12.46,0-4.02,0-8.03,.12-12.04,.41-3.88,.29-7.76,.34-11.64,.33-3.22,0-6.42-.29-9.6-.76-.44-.07-.74-.37-.93-.7-.9-1.64-1.83-3.27-2.48-5.03-.13-.35,.08-.68,.59-.83Z" fill="#333"/>
        <path d="M1265.75,98.45c1.08,3.05,2.58,5.87,4.65,8.38,1.2,1.46,2.57,2.72,4.12,3.8,1.22,.85,2.53,1.5,3.95,1.92,1.28,.38,2.6,.64,3.87,1.05,1.81,.59,3.67,.74,5.57,.71,2.13,.02,4.24-.19,6.35-.71,2.5-.61,4.84-1.55,6.98-2.97,2.58-1.71,4.96-3.65,7.08-5.91,.38-.4,.64-.86,.77-1.38,.1-.39,.19-.78,.25-1.18,.23-1.59,.37-3.2,.68-4.77,.47-2.39,.46-4.79,.41-7.21-.03-1.75-.39-3.46-.62-5.19-.34-2.55-1.23-4.93-2.47-7.17-.84-1.53-1.82-2.97-2.9-4.33-.5-.63-1.02-1.24-1.5-1.89-.15-.2-.25-.48-.28-.73-.24-3.05,.45-5.85,2.25-8.35,.16-.22,.32-.43,.47-.65,1.83-2.72,2.86-5.73,3.26-8.97,.08-.66,.09-1.34,.01-2-.28-2.54-.84-5-1.81-7.38-1.87-4.61-4.17-8.98-7.08-13.02-1.25-1.74-2.49-3.49-3.67-5.28-1.72-2.59-1.6-2.64-4.9-2.06-.53,.09-1.06,.15-1.59,.25-.39,.08-.79,.17-1.16,.3-1.91,.65-3.75,1.43-5.34,2.71-.31,.25-.61,.53-.95,.74-.34,.2-.71,.4-1.09,.46-1.25,.2-2.24,.85-3.16,1.65-1.52,1.33-2.79,2.89-4.02,4.48-1.16,1.49-2.08,3.12-2.75,4.88-1.44,3.78-2.44,7.65-2.44,11.73,0,.8-.01,1.61,0,2.41,.02,1.34-.06,2.69,.1,4.01,.16,1.33,.97,2.48,1.46,3.72,.95,2.36,1.91,4.71,2.89,7.06,.17,.4,.2,.78,.03,1.14-.74,1.57-1.48,3.15-2.27,4.7-1.58,3.11-2.83,6.35-3.96,9.65-.96,2.81-1.52,5.68-1.75,8.63-.14,1.75-.06,3.48,.2,5.21,.08,.53,.19,1.06,.36,1.56Zm14.66-50.02c1.28-1.35,2.59-2.67,3.91-3.99,.38-.38,.82-.67,1.34-.84,4.63-1.46,3.37-1.5,8.04,0,.53,.17,.93,.55,1.17,1.03,.9,1.77,1.78,3.56,2.65,5.36,.11,.23,.15,.54,.1,.78-.4,1.81-.72,3.65-1.39,5.39-.05,.12-.09,.26-.18,.35-.18,.19-.35,.41-.58,.51-.36,.16-.77,.2-1.14,.33-1.4,.49-2.84,.7-3.95,.61-3.26,.02-5.86-.89-8.26-2.44-.21-.14-.39-.38-.49-.61-.21-.49-.39-.99-.52-1.51-.34-1.28-.65-2.58-.95-3.87-.09-.4-.02-.85,.25-1.13Zm-.84,37.11c1.12-2.81,2.89-5.1,5.47-6.73,.69-.44,1.38-.81,2.22-.79,.27,0,.53-.01,.8,0,1.07,.03,2.16-.07,3.2,.13,1.04,.2,1.9,.92,2.81,1.48,1.59,.98,3.2,1.93,4.79,2.92,.2,.12,.34,.42,.4,.67,.09,.39,.12,.79,.12,1.19-.04,3.1,.34,6.13,1.35,9.08,.09,.25-.18,.92-.39,1.08-2.27,1.74-4.83,2.86-7.6,3.43-1.43,.29-2.92,.28-3.56,.33-2.98,0-5.11-.17-7.14-.96-.24-.09-.5-.25-.64-.45-.93-1.31-1.83-2.63-2.72-3.96-.14-.21-.2-.5-.22-.76-.19-2.31,.27-4.52,1.12-6.66Z" fill="#333"/>
        <path d="M971.95,36.67c.42,.55,.98,.95,1.65,1.05,1.98,.3,3.89,.98,5.91,1.1,2.08,.57,4.23,.6,6.34,.97,1.72,.3,3.44,.45,5.18,.55,1.47,.08,2.93,.2,4.4,.28,2,.11,4,.24,6.01,.29,2.67,.07,5.35,.08,8.02,.12,0-.02,0-.04,0-.06,2.41,0,4.81,.03,7.22,0,4.28-.07,8.55-.19,12.83-.28,.96-.02,1.85-.26,2.7-.68,.6-.29,1.19-.6,1.78-.91,.83-.43,1.66-.86,2.49-1.29,.45-.23,.71-.85,.58-1.37-.36-1.42-.7-2.85-1.09-4.27-.22-.8-.64-1.38-1.48-1.74-2.22-.95-4.53-1.63-6.88-2.11-2.48-.5-4.99-.95-7.54-.99-1.07-.01-2.13-.15-3.2-.25-1.2-.1-2.39-.25-3.59-.32-2.93-.17-5.88-.14-8.79-.71-.26-.05-.53-.05-.8-.05-3.09-.03-6.1-.72-9.12-1.27-2.89-.53-5.76-1.14-8.65-1.64-2.93-.51-5.85-.53-8.79-.43-.4,.01-.81,.04-1.19,.17-1.27,.42-2.55,.8-3.7,1.5-1.15,.71-2.13,1.6-2.88,2.74-.59,.9-1.02,1.87-1.34,2.89-.21,.68-.11,1.32,.32,1.89,1.2,1.6,2.4,3.21,3.62,4.8Z" fill="#333"/>
        <path d="M1083.79,37.66c.91,.25,1.77,.6,2.58,1.07,.58,.33,1.17,.67,1.68,1.08,.89,.72,1.9,.9,3.01,.85,1.6-.08,3.21-.13,4.81-.19,3.74-.13,7.48-.19,11.19-.84,.52-.09,1.07-.09,1.6-.15,.66-.07,1.34-.11,1.99-.25,2.48-.53,5.01-.77,7.51-1.25,3.37-.65,6.96-1.35,10.18-2.15,4.14-1.04,8.22-2.3,12.29-3.61,1.02-.33,2.02-.7,3-1.11,.2-.08,.38-.41,.42-.65,.26-1.73,.12-3.47,.12-5.2,0-.52-.26-1-.67-1.4-2.04-1.96-4.37-3.49-6.89-4.77-2.36-1.19-2.88-1.36-5.37-1.08-1.33,.15-2.65,.38-3.95,.68-.77,.18-1.52,.51-2.24,.85-.6,.28-1.16,.65-1.74,.98-1.63,.92-3.34,1.65-5.1,2.3-4.16,1.55-8.49,2.29-12.86,2.92-2.68,.09-5.31,.54-7.97,.84-2.93,.32-5.78,1.01-8.62,1.76-1.55,.41-3.01,1.1-4.48,1.72-.24,.1-.45,.29-.67,.43-.49,.29-.81,.71-.83,1.28-.04,1.47-.05,2.94-.05,4.41,0,.71,.42,1.32,1.08,1.5Z" fill="#333"/>
      </g>
    </g>
  </g>
</svg>